G04 Layer_Physical_Order=2*
G04 Layer_Color=16711680*
%FSLAX25Y25*%
%MOIN*%
G70*
G01*
G75*
%ADD23C,0.01000*%
%ADD24R,0.05906X0.05906*%
%ADD25C,0.05906*%
%ADD26O,0.03347X0.04134*%
%ADD27O,0.03150X0.05906*%
%ADD28C,0.02441*%
%ADD29C,0.02567*%
G36*
X419173Y458189D02*
X426828Y457624D01*
X434445Y456685D01*
X442008Y455373D01*
X449497Y453691D01*
X456894Y451644D01*
X464182Y449236D01*
X471343Y446474D01*
X478360Y443364D01*
X485216Y439913D01*
X491894Y436129D01*
X498379Y432023D01*
X504654Y427603D01*
X510705Y422881D01*
X516517Y417868D01*
X522076Y412575D01*
X527368Y407017D01*
X532381Y401205D01*
X537104Y395154D01*
X541523Y388879D01*
X545629Y382394D01*
X549413Y375716D01*
X552864Y368860D01*
X555974Y361843D01*
X558736Y354682D01*
X561144Y347394D01*
X563191Y339997D01*
X564873Y332508D01*
X566185Y324945D01*
X567124Y317328D01*
X567689Y309673D01*
X567877Y302000D01*
X567689Y294327D01*
X567124Y286672D01*
X566185Y279055D01*
X564873Y271492D01*
X563191Y264003D01*
X561144Y256606D01*
X558736Y249318D01*
X555974Y242157D01*
X552864Y235140D01*
X549413Y228284D01*
X545629Y221606D01*
X541523Y215121D01*
X537104Y208846D01*
X532381Y202795D01*
X527368Y196983D01*
X522076Y191425D01*
X516517Y186132D01*
X510705Y181119D01*
X504654Y176397D01*
X498379Y171977D01*
X491894Y167871D01*
X485216Y164087D01*
X478360Y160636D01*
X471343Y157526D01*
X464182Y154764D01*
X456894Y152356D01*
X449497Y150309D01*
X442008Y148627D01*
X434445Y147315D01*
X426828Y146376D01*
X419173Y145811D01*
X411500Y145623D01*
X403827Y145811D01*
X396172Y146376D01*
X388555Y147315D01*
X380992Y148627D01*
X373503Y150309D01*
X366106Y152356D01*
X358818Y154764D01*
X351657Y157526D01*
X344640Y160636D01*
X337784Y164087D01*
X331106Y167871D01*
X324621Y171977D01*
X318346Y176397D01*
X312295Y181119D01*
X306483Y186132D01*
X300924Y191425D01*
X295632Y196983D01*
X290619Y202795D01*
X285896Y208846D01*
X281477Y215121D01*
X277371Y221606D01*
X273587Y228284D01*
X270136Y235140D01*
X267026Y242157D01*
X264264Y249318D01*
X261856Y256606D01*
X259809Y264003D01*
X258127Y271492D01*
X256815Y279055D01*
X255876Y286672D01*
X255311Y294327D01*
X255123Y302000D01*
X255311Y309673D01*
X255876Y317328D01*
X256815Y324945D01*
X258127Y332508D01*
X259809Y339997D01*
X261856Y347394D01*
X264264Y354682D01*
X267026Y361843D01*
X270136Y368860D01*
X273587Y375716D01*
X277371Y382394D01*
X281477Y388879D01*
X285896Y395154D01*
X290619Y401205D01*
X295632Y407017D01*
X300924Y412575D01*
X306483Y417868D01*
X312295Y422881D01*
X318346Y427603D01*
X324621Y432023D01*
X331106Y436129D01*
X337784Y439913D01*
X344640Y443364D01*
X351657Y446474D01*
X358818Y449236D01*
X366106Y451644D01*
X373503Y453691D01*
X380992Y455373D01*
X388555Y456685D01*
X396172Y457624D01*
X403827Y458189D01*
X411500Y458377D01*
X419173Y458189D01*
D02*
G37*
%LPC*%
G36*
X531500Y378083D02*
X530573Y377961D01*
X529708Y377603D01*
X528966Y377034D01*
X528397Y376292D01*
X528326Y376121D01*
X500500D01*
X500500Y376122D01*
X500071Y376036D01*
X499707Y375793D01*
X439207Y315293D01*
X438964Y314929D01*
X438878Y314500D01*
X438878Y314500D01*
Y285940D01*
X438688Y285812D01*
X438285Y285210D01*
X438144Y284500D01*
X438285Y283790D01*
X438688Y283188D01*
X439290Y282785D01*
X440000Y282644D01*
X440710Y282785D01*
X441313Y283188D01*
X441715Y283790D01*
X441856Y284500D01*
X441715Y285210D01*
X441313Y285812D01*
X441122Y285940D01*
Y314035D01*
X450270Y323184D01*
X450731Y322938D01*
X450644Y322500D01*
X450785Y321790D01*
X451188Y321187D01*
X451378Y321060D01*
Y309000D01*
X451378Y309000D01*
X451464Y308571D01*
X451707Y308207D01*
X466207Y293707D01*
X466207Y293707D01*
X466571Y293464D01*
X467000Y293378D01*
X467000Y293378D01*
X528119D01*
X528397Y292708D01*
X528966Y291966D01*
X529708Y291397D01*
X530573Y291039D01*
X531500Y290917D01*
X532428Y291039D01*
X533292Y291397D01*
X534034Y291966D01*
X534603Y292708D01*
X534961Y293573D01*
X535083Y294500D01*
X534961Y295427D01*
X534603Y296292D01*
X534034Y297034D01*
X533292Y297603D01*
X532428Y297961D01*
X531500Y298083D01*
X530573Y297961D01*
X529708Y297603D01*
X528966Y297034D01*
X528397Y296292D01*
X528119Y295621D01*
X467465D01*
X453622Y309465D01*
Y321060D01*
X453813Y321187D01*
X454215Y321790D01*
X454356Y322500D01*
X454215Y323210D01*
X453813Y323813D01*
X453210Y324215D01*
X452500Y324356D01*
X452062Y324269D01*
X451816Y324730D01*
X500965Y373879D01*
X527998D01*
X528039Y373573D01*
X528397Y372708D01*
X528966Y371966D01*
X529708Y371397D01*
X530573Y371039D01*
X531500Y370917D01*
X532428Y371039D01*
X533292Y371397D01*
X534034Y371966D01*
X534603Y372708D01*
X534961Y373573D01*
X535083Y374500D01*
X534961Y375427D01*
X534603Y376292D01*
X534034Y377034D01*
X533292Y377603D01*
X532428Y377961D01*
X531500Y378083D01*
D02*
G37*
G36*
X291500Y377083D02*
X290573Y376961D01*
X289708Y376603D01*
X288966Y376034D01*
X288397Y375292D01*
X288039Y374427D01*
X287917Y373500D01*
X288039Y372573D01*
X288397Y371708D01*
X288966Y370966D01*
X289708Y370397D01*
X290573Y370039D01*
X291500Y369917D01*
X292427Y370039D01*
X293292Y370397D01*
X294034Y370966D01*
X294603Y371708D01*
X294881Y372378D01*
X328535D01*
X335853Y365061D01*
X335606Y364600D01*
X335500Y364622D01*
X335500Y364621D01*
X294881D01*
X294603Y365292D01*
X294034Y366034D01*
X293292Y366603D01*
X292427Y366961D01*
X291500Y367083D01*
X290573Y366961D01*
X289708Y366603D01*
X288966Y366034D01*
X288397Y365292D01*
X288039Y364427D01*
X287917Y363500D01*
X288039Y362573D01*
X288397Y361708D01*
X288966Y360966D01*
X289708Y360397D01*
X290573Y360039D01*
X291500Y359917D01*
X292427Y360039D01*
X293292Y360397D01*
X294034Y360966D01*
X294603Y361708D01*
X294881Y362379D01*
X335035D01*
X342292Y355121D01*
X342085Y354622D01*
X294881D01*
X294603Y355292D01*
X294034Y356034D01*
X293292Y356603D01*
X292427Y356961D01*
X291500Y357083D01*
X290573Y356961D01*
X289708Y356603D01*
X288966Y356034D01*
X288397Y355292D01*
X288039Y354427D01*
X287917Y353500D01*
X288039Y352573D01*
X288397Y351708D01*
X288966Y350966D01*
X289708Y350397D01*
X290573Y350039D01*
X291500Y349917D01*
X292427Y350039D01*
X293292Y350397D01*
X294034Y350966D01*
X294603Y351708D01*
X294881Y352379D01*
X342035D01*
X403292Y291122D01*
X403085Y290621D01*
X402440D01*
X402313Y290812D01*
X401710Y291215D01*
X401000Y291356D01*
X400290Y291215D01*
X400121Y291103D01*
X399622Y291370D01*
Y292000D01*
X399622Y292000D01*
X399536Y292429D01*
X399293Y292793D01*
X399293Y292793D01*
X347793Y344293D01*
X347429Y344536D01*
X347000Y344622D01*
X347000Y344621D01*
X294881D01*
X294603Y345292D01*
X294034Y346034D01*
X293292Y346603D01*
X292427Y346961D01*
X291500Y347083D01*
X290573Y346961D01*
X289708Y346603D01*
X288966Y346034D01*
X288397Y345292D01*
X288039Y344427D01*
X287917Y343500D01*
X288039Y342573D01*
X288397Y341708D01*
X288966Y340966D01*
X289708Y340397D01*
X290573Y340039D01*
X291500Y339917D01*
X292427Y340039D01*
X293292Y340397D01*
X294034Y340966D01*
X294603Y341708D01*
X294881Y342378D01*
X346535D01*
X397378Y291535D01*
Y288915D01*
X396879Y288708D01*
X351293Y334293D01*
X350929Y334536D01*
X350500Y334622D01*
X350500Y334622D01*
X294881D01*
X294603Y335292D01*
X294034Y336034D01*
X293292Y336603D01*
X292427Y336961D01*
X291500Y337083D01*
X290573Y336961D01*
X289708Y336603D01*
X288966Y336034D01*
X288397Y335292D01*
X288039Y334427D01*
X287917Y333500D01*
X288039Y332573D01*
X288397Y331708D01*
X288966Y330966D01*
X289708Y330397D01*
X290573Y330039D01*
X291500Y329917D01*
X292427Y330039D01*
X293292Y330397D01*
X294034Y330966D01*
X294603Y331708D01*
X294881Y332379D01*
X350035D01*
X357330Y325083D01*
X357139Y324622D01*
X294881D01*
X294603Y325292D01*
X294034Y326034D01*
X293292Y326603D01*
X292427Y326961D01*
X291500Y327083D01*
X290573Y326961D01*
X289708Y326603D01*
X288966Y326034D01*
X288397Y325292D01*
X288039Y324427D01*
X287917Y323500D01*
X288039Y322573D01*
X288397Y321708D01*
X288966Y320966D01*
X289708Y320397D01*
X290573Y320039D01*
X291500Y319917D01*
X292427Y320039D01*
X293292Y320397D01*
X294034Y320966D01*
X294603Y321708D01*
X294881Y322378D01*
X357535D01*
X364792Y315122D01*
X364585Y314621D01*
X294881D01*
X294603Y315292D01*
X294034Y316034D01*
X293292Y316603D01*
X292427Y316961D01*
X291500Y317083D01*
X290573Y316961D01*
X289708Y316603D01*
X288966Y316034D01*
X288397Y315292D01*
X288039Y314427D01*
X287917Y313500D01*
X288039Y312573D01*
X288397Y311708D01*
X288966Y310966D01*
X289708Y310397D01*
X290573Y310039D01*
X291500Y309917D01*
X292427Y310039D01*
X293292Y310397D01*
X294034Y310966D01*
X294603Y311708D01*
X294881Y312379D01*
X364535D01*
X371330Y305584D01*
X371139Y305121D01*
X294674D01*
X294603Y305292D01*
X294034Y306034D01*
X293292Y306603D01*
X292427Y306961D01*
X291500Y307083D01*
X290573Y306961D01*
X289708Y306603D01*
X288966Y306034D01*
X288397Y305292D01*
X288039Y304427D01*
X287917Y303500D01*
X288039Y302573D01*
X288397Y301708D01*
X288966Y300966D01*
X289708Y300397D01*
X290573Y300039D01*
X291500Y299917D01*
X292427Y300039D01*
X293292Y300397D01*
X294034Y300966D01*
X294603Y301708D01*
X294961Y302573D01*
X295002Y302878D01*
X371535D01*
X398378Y276035D01*
Y271940D01*
X398187Y271813D01*
X397785Y271210D01*
X397644Y270500D01*
X397785Y269790D01*
X398187Y269187D01*
X398790Y268785D01*
X399500Y268644D01*
X400210Y268785D01*
X400812Y269187D01*
X401215Y269790D01*
X401356Y270500D01*
X401275Y270907D01*
X401554Y271097D01*
X401736Y271155D01*
X402290Y270785D01*
X403000Y270644D01*
X403710Y270785D01*
X403732Y270800D01*
X404148Y270522D01*
X404144Y270500D01*
X404285Y269790D01*
X404688Y269187D01*
X405290Y268785D01*
X406000Y268644D01*
X406710Y268785D01*
X407312Y269187D01*
X407715Y269790D01*
X407856Y270500D01*
X407715Y271210D01*
X407312Y271813D01*
X407122Y271940D01*
Y275500D01*
X407122Y275500D01*
X407036Y275929D01*
X406793Y276293D01*
X406793Y276293D01*
X400170Y282916D01*
X400361Y283379D01*
X402060D01*
X402187Y283188D01*
X402790Y282785D01*
X403500Y282644D01*
X404210Y282785D01*
X404812Y283188D01*
X405215Y283790D01*
X405356Y284500D01*
X405275Y284908D01*
X405554Y285097D01*
X405736Y285155D01*
X406290Y284785D01*
X407000Y284644D01*
X407710Y284785D01*
X408313Y285188D01*
X408715Y285790D01*
X408795Y286192D01*
X409139Y286261D01*
X409315Y286245D01*
X409688Y285687D01*
X410290Y285285D01*
X411000Y285144D01*
X411710Y285285D01*
X412313Y285687D01*
X412449Y285892D01*
X413051D01*
X413188Y285687D01*
X413790Y285285D01*
X414500Y285144D01*
X415210Y285285D01*
X415812Y285687D01*
X416215Y286290D01*
X416245Y286442D01*
X416755D01*
X416785Y286290D01*
X417188Y285687D01*
X417790Y285285D01*
X418500Y285144D01*
X419210Y285285D01*
X419812Y285687D01*
X420215Y286290D01*
X420356Y287000D01*
X420215Y287710D01*
X419812Y288313D01*
X419622Y288440D01*
Y290500D01*
X419536Y290929D01*
X419293Y291293D01*
X419293Y291293D01*
X413793Y296793D01*
X413429Y297036D01*
X413000Y297122D01*
X413000Y297122D01*
X406965D01*
X405403Y298683D01*
X405649Y299144D01*
X405942Y299086D01*
X406652Y299227D01*
X407255Y299629D01*
X407657Y300232D01*
X407798Y300942D01*
X407657Y301652D01*
X407255Y302255D01*
X406652Y302657D01*
X405942Y302798D01*
X405232Y302657D01*
X404630Y302255D01*
X404227Y301652D01*
X404086Y300942D01*
X404144Y300649D01*
X403683Y300403D01*
X329793Y374293D01*
X329429Y374536D01*
X329000Y374622D01*
X329000Y374622D01*
X294881D01*
X294603Y375292D01*
X294034Y376034D01*
X293292Y376603D01*
X292427Y376961D01*
X291500Y377083D01*
D02*
G37*
G36*
X531500Y368083D02*
X530573Y367961D01*
X529708Y367603D01*
X528966Y367034D01*
X528397Y366292D01*
X528039Y365427D01*
X527917Y364500D01*
X528039Y363573D01*
X528397Y362708D01*
X528966Y361966D01*
X529708Y361397D01*
X530573Y361039D01*
X531500Y360917D01*
X532428Y361039D01*
X533292Y361397D01*
X534034Y361966D01*
X534603Y362708D01*
X534961Y363573D01*
X535083Y364500D01*
X534961Y365427D01*
X534603Y366292D01*
X534034Y367034D01*
X533292Y367603D01*
X532428Y367961D01*
X531500Y368083D01*
D02*
G37*
G36*
X407000Y356122D02*
X407000Y356121D01*
X394500D01*
X394500Y356122D01*
X394071Y356036D01*
X393707Y355793D01*
X393707Y355793D01*
X388707Y350793D01*
X388464Y350429D01*
X388378Y350000D01*
X388379Y350000D01*
Y333500D01*
X388378Y333500D01*
X388464Y333071D01*
X388707Y332707D01*
X388718Y332696D01*
X388580Y332000D01*
X388726Y331265D01*
X389142Y330642D01*
X389765Y330226D01*
X390500Y330080D01*
X391235Y330226D01*
X391858Y330642D01*
X392274Y331265D01*
X392420Y332000D01*
X392274Y332735D01*
X391858Y333358D01*
X391235Y333774D01*
X390707Y333879D01*
X390621Y333965D01*
Y349535D01*
X394965Y353878D01*
X406535D01*
X434878Y325535D01*
Y288940D01*
X434688Y288812D01*
X434285Y288210D01*
X434144Y287500D01*
X434285Y286790D01*
X434688Y286188D01*
X434878Y286060D01*
Y279965D01*
X432207Y277293D01*
X431964Y276929D01*
X431878Y276500D01*
X431878Y276500D01*
Y257500D01*
X431878Y257500D01*
X431964Y257071D01*
X432207Y256707D01*
X441316Y247598D01*
X441039Y246927D01*
X440917Y246000D01*
X441039Y245073D01*
X441316Y244402D01*
X432207Y235293D01*
X431964Y234929D01*
X431878Y234500D01*
X431878Y234500D01*
Y229940D01*
X431687Y229813D01*
X431285Y229210D01*
X431144Y228500D01*
X431285Y227790D01*
X431687Y227187D01*
X432290Y226785D01*
X433000Y226644D01*
X433710Y226785D01*
X434312Y227187D01*
X434715Y227790D01*
X434856Y228500D01*
X434715Y229210D01*
X434312Y229813D01*
X434122Y229940D01*
Y234035D01*
X442902Y242816D01*
X443573Y242539D01*
X444500Y242417D01*
X445428Y242539D01*
X446292Y242897D01*
X447034Y243466D01*
X447603Y244208D01*
X447961Y245073D01*
X448083Y246000D01*
X447961Y246927D01*
X447603Y247792D01*
X447034Y248534D01*
X446292Y249103D01*
X445428Y249461D01*
X444500Y249583D01*
X443573Y249461D01*
X442902Y249184D01*
X434122Y257965D01*
Y276035D01*
X436793Y278707D01*
X437036Y279071D01*
X437122Y279500D01*
X437122Y279500D01*
Y286060D01*
X437313Y286188D01*
X437715Y286790D01*
X437856Y287500D01*
X437715Y288210D01*
X437313Y288812D01*
X437122Y288940D01*
Y326000D01*
X437036Y326429D01*
X436793Y326793D01*
X436793Y326793D01*
X407793Y355793D01*
X407429Y356036D01*
X407000Y356122D01*
D02*
G37*
G36*
X531500Y358083D02*
X530573Y357961D01*
X529708Y357603D01*
X528966Y357034D01*
X528397Y356292D01*
X528039Y355427D01*
X527917Y354500D01*
X528039Y353573D01*
X528397Y352708D01*
X528966Y351966D01*
X529708Y351397D01*
X530573Y351039D01*
X531500Y350917D01*
X532428Y351039D01*
X533292Y351397D01*
X534034Y351966D01*
X534603Y352708D01*
X534961Y353573D01*
X535083Y354500D01*
X534961Y355427D01*
X534603Y356292D01*
X534034Y357034D01*
X533292Y357603D01*
X532428Y357961D01*
X531500Y358083D01*
D02*
G37*
G36*
Y348083D02*
X530573Y347961D01*
X529708Y347603D01*
X528966Y347034D01*
X528397Y346292D01*
X528326Y346122D01*
X503940D01*
X503813Y346312D01*
X503210Y346715D01*
X502500Y346856D01*
X501790Y346715D01*
X501188Y346312D01*
X500785Y345710D01*
X500644Y345000D01*
X500785Y344290D01*
X501188Y343688D01*
X501790Y343285D01*
X502500Y343144D01*
X503210Y343285D01*
X503813Y343688D01*
X503940Y343879D01*
X527998D01*
X528039Y343573D01*
X528397Y342708D01*
X528966Y341966D01*
X529708Y341397D01*
X530573Y341039D01*
X531500Y340917D01*
X532428Y341039D01*
X533292Y341397D01*
X534034Y341966D01*
X534603Y342708D01*
X534961Y343573D01*
X535083Y344500D01*
X534961Y345427D01*
X534603Y346292D01*
X534034Y347034D01*
X533292Y347603D01*
X532428Y347961D01*
X531500Y348083D01*
D02*
G37*
G36*
Y338083D02*
X530573Y337961D01*
X529708Y337603D01*
X528966Y337034D01*
X528397Y336292D01*
X528119Y335622D01*
X489440D01*
X489313Y335812D01*
X488710Y336215D01*
X488000Y336356D01*
X487290Y336215D01*
X486688Y335812D01*
X486285Y335210D01*
X486144Y334500D01*
X486285Y333790D01*
X486688Y333188D01*
X487290Y332785D01*
X488000Y332644D01*
X488710Y332785D01*
X489313Y333188D01*
X489440Y333379D01*
X528119D01*
X528397Y332708D01*
X528966Y331966D01*
X529708Y331397D01*
X530573Y331039D01*
X531500Y330917D01*
X532428Y331039D01*
X533292Y331397D01*
X534034Y331966D01*
X534603Y332708D01*
X534961Y333573D01*
X535083Y334500D01*
X534961Y335427D01*
X534603Y336292D01*
X534034Y337034D01*
X533292Y337603D01*
X532428Y337961D01*
X531500Y338083D01*
D02*
G37*
G36*
X405917Y328274D02*
X405207Y328132D01*
X404605Y327730D01*
X404477Y327539D01*
X387417D01*
X387417Y327539D01*
X386988Y327453D01*
X386624Y327210D01*
X386624Y327210D01*
X385725Y326311D01*
X385500Y326356D01*
X384790Y326215D01*
X384188Y325813D01*
X383785Y325210D01*
X383644Y324500D01*
X383785Y323790D01*
X384188Y323187D01*
X384790Y322785D01*
X385500Y322644D01*
X386210Y322785D01*
X386812Y323187D01*
X387215Y323790D01*
X387356Y324500D01*
X387311Y324725D01*
X387882Y325296D01*
X404477D01*
X404605Y325105D01*
X405207Y324703D01*
X405917Y324561D01*
X406628Y324703D01*
X407230Y325105D01*
X407632Y325707D01*
X407773Y326417D01*
X407632Y327128D01*
X407230Y327730D01*
X406628Y328132D01*
X405917Y328274D01*
D02*
G37*
G36*
X531500Y328083D02*
X530573Y327961D01*
X529708Y327603D01*
X528966Y327034D01*
X528397Y326292D01*
X528326Y326121D01*
X475940D01*
X475812Y326312D01*
X475210Y326715D01*
X474500Y326856D01*
X473790Y326715D01*
X473187Y326312D01*
X472785Y325710D01*
X472644Y325000D01*
X472785Y324290D01*
X473187Y323688D01*
X473790Y323285D01*
X474500Y323144D01*
X475210Y323285D01*
X475812Y323688D01*
X475940Y323879D01*
X527998D01*
X528039Y323573D01*
X528397Y322708D01*
X528966Y321966D01*
X529708Y321397D01*
X530573Y321039D01*
X531500Y320917D01*
X532428Y321039D01*
X533292Y321397D01*
X534034Y321966D01*
X534603Y322708D01*
X534961Y323573D01*
X535083Y324500D01*
X534961Y325427D01*
X534603Y326292D01*
X534034Y327034D01*
X533292Y327603D01*
X532428Y327961D01*
X531500Y328083D01*
D02*
G37*
G36*
Y318083D02*
X530573Y317961D01*
X529708Y317603D01*
X528966Y317034D01*
X528650Y316621D01*
X462440D01*
X462313Y316812D01*
X461710Y317215D01*
X461000Y317356D01*
X460290Y317215D01*
X459688Y316812D01*
X459285Y316210D01*
X459144Y315500D01*
X459285Y314790D01*
X459688Y314188D01*
X460290Y313785D01*
X461000Y313644D01*
X461710Y313785D01*
X462313Y314188D01*
X462440Y314378D01*
X527933D01*
X528039Y313573D01*
X528397Y312708D01*
X528966Y311966D01*
X529708Y311397D01*
X530573Y311039D01*
X531500Y310917D01*
X532428Y311039D01*
X533292Y311397D01*
X534034Y311966D01*
X534603Y312708D01*
X534961Y313573D01*
X535083Y314500D01*
X534961Y315427D01*
X534603Y316292D01*
X534034Y317034D01*
X533292Y317603D01*
X532428Y317961D01*
X531500Y318083D01*
D02*
G37*
G36*
X456000Y320856D02*
X455290Y320715D01*
X454688Y320312D01*
X454285Y319710D01*
X454144Y319000D01*
X454285Y318290D01*
X454688Y317688D01*
X454878Y317560D01*
Y311000D01*
X454878Y311000D01*
X454964Y310571D01*
X455207Y310207D01*
X461707Y303707D01*
X461707Y303707D01*
X462071Y303464D01*
X462500Y303378D01*
X462500Y303379D01*
X528119D01*
X528397Y302708D01*
X528966Y301966D01*
X529708Y301397D01*
X530573Y301039D01*
X531500Y300917D01*
X532428Y301039D01*
X533292Y301397D01*
X534034Y301966D01*
X534603Y302708D01*
X534961Y303573D01*
X535083Y304500D01*
X534961Y305427D01*
X534603Y306292D01*
X534034Y307034D01*
X533292Y307603D01*
X532428Y307961D01*
X531500Y308083D01*
X530573Y307961D01*
X529708Y307603D01*
X528966Y307034D01*
X528397Y306292D01*
X528119Y305622D01*
X462965D01*
X457122Y311465D01*
Y317560D01*
X457312Y317688D01*
X457715Y318290D01*
X457856Y319000D01*
X457715Y319710D01*
X457312Y320312D01*
X456710Y320715D01*
X456000Y320856D01*
D02*
G37*
G36*
X291500Y297083D02*
X290573Y296961D01*
X289708Y296603D01*
X288966Y296034D01*
X288397Y295292D01*
X288039Y294427D01*
X287917Y293500D01*
X288039Y292573D01*
X288397Y291708D01*
X288966Y290966D01*
X289708Y290397D01*
X290573Y290039D01*
X291500Y289917D01*
X292427Y290039D01*
X293292Y290397D01*
X294034Y290966D01*
X294603Y291708D01*
X294961Y292573D01*
X295083Y293500D01*
X294961Y294427D01*
X294603Y295292D01*
X294034Y296034D01*
X293292Y296603D01*
X292427Y296961D01*
X291500Y297083D01*
D02*
G37*
G36*
X531500Y288083D02*
X530573Y287961D01*
X529708Y287603D01*
X528966Y287034D01*
X528397Y286292D01*
X528039Y285427D01*
X527917Y284500D01*
X528039Y283573D01*
X528397Y282708D01*
X528966Y281966D01*
X529708Y281397D01*
X530573Y281039D01*
X531500Y280917D01*
X532428Y281039D01*
X533292Y281397D01*
X534034Y281966D01*
X534603Y282708D01*
X534961Y283573D01*
X535083Y284500D01*
X534961Y285427D01*
X534603Y286292D01*
X534034Y287034D01*
X533292Y287603D01*
X532428Y287961D01*
X531500Y288083D01*
D02*
G37*
G36*
X291500Y287083D02*
X290573Y286961D01*
X289708Y286603D01*
X288966Y286034D01*
X288397Y285292D01*
X288039Y284427D01*
X287917Y283500D01*
X288039Y282573D01*
X288397Y281708D01*
X288966Y280966D01*
X289708Y280397D01*
X290573Y280039D01*
X291500Y279917D01*
X292427Y280039D01*
X293292Y280397D01*
X294034Y280966D01*
X294603Y281708D01*
X294961Y282573D01*
X295083Y283500D01*
X294961Y284427D01*
X294603Y285292D01*
X294034Y286034D01*
X293292Y286603D01*
X292427Y286961D01*
X291500Y287083D01*
D02*
G37*
G36*
X452500Y298356D02*
X451790Y298215D01*
X451188Y297813D01*
X450785Y297210D01*
X450644Y296500D01*
X450785Y295790D01*
X451188Y295187D01*
X451378Y295060D01*
Y280500D01*
X451378Y280500D01*
X451464Y280071D01*
X451707Y279707D01*
X457707Y273707D01*
X457707Y273707D01*
X458071Y273464D01*
X458500Y273378D01*
X458500Y273378D01*
X528119D01*
X528397Y272708D01*
X528966Y271966D01*
X529708Y271397D01*
X530573Y271039D01*
X531500Y270917D01*
X532428Y271039D01*
X533292Y271397D01*
X534034Y271966D01*
X534603Y272708D01*
X534961Y273573D01*
X535083Y274500D01*
X534961Y275427D01*
X534603Y276292D01*
X534034Y277034D01*
X533292Y277603D01*
X532428Y277961D01*
X531500Y278083D01*
X530573Y277961D01*
X529708Y277603D01*
X528966Y277034D01*
X528397Y276292D01*
X528119Y275622D01*
X458965D01*
X453622Y280965D01*
Y295060D01*
X453813Y295187D01*
X454215Y295790D01*
X454356Y296500D01*
X454215Y297210D01*
X453813Y297813D01*
X453210Y298215D01*
X452500Y298356D01*
D02*
G37*
G36*
X291500Y277083D02*
X290573Y276961D01*
X289708Y276603D01*
X288966Y276034D01*
X288397Y275292D01*
X288039Y274427D01*
X287917Y273500D01*
X288039Y272573D01*
X288397Y271708D01*
X288966Y270966D01*
X289708Y270397D01*
X290573Y270039D01*
X291500Y269917D01*
X292427Y270039D01*
X293292Y270397D01*
X294034Y270966D01*
X294603Y271708D01*
X294961Y272573D01*
X295083Y273500D01*
X294961Y274427D01*
X294603Y275292D01*
X294034Y276034D01*
X293292Y276603D01*
X292427Y276961D01*
X291500Y277083D01*
D02*
G37*
G36*
X445000Y269921D02*
Y266500D01*
X448421D01*
X448351Y267032D01*
X447953Y267993D01*
X447319Y268819D01*
X446493Y269453D01*
X445532Y269851D01*
X445000Y269921D01*
D02*
G37*
G36*
X444000D02*
X443468Y269851D01*
X442507Y269453D01*
X441681Y268819D01*
X441047Y267993D01*
X440649Y267032D01*
X440579Y266500D01*
X444000D01*
Y269921D01*
D02*
G37*
G36*
X292000Y267421D02*
Y264000D01*
X295421D01*
X295351Y264532D01*
X294953Y265493D01*
X294319Y266319D01*
X293493Y266953D01*
X292532Y267351D01*
X292000Y267421D01*
D02*
G37*
G36*
X291000D02*
X290468Y267351D01*
X289507Y266953D01*
X288681Y266319D01*
X288047Y265493D01*
X287649Y264532D01*
X287579Y264000D01*
X291000D01*
Y267421D01*
D02*
G37*
G36*
X454500Y269583D02*
X453573Y269461D01*
X452708Y269103D01*
X451966Y268534D01*
X451397Y267792D01*
X451039Y266927D01*
X450917Y266000D01*
X451039Y265073D01*
X451397Y264208D01*
X451966Y263466D01*
X452708Y262897D01*
X453573Y262539D01*
X454500Y262417D01*
X455428Y262539D01*
X456292Y262897D01*
X457034Y263466D01*
X457603Y264208D01*
X457961Y265073D01*
X458083Y266000D01*
X457961Y266927D01*
X457603Y267792D01*
X457034Y268534D01*
X456292Y269103D01*
X455428Y269461D01*
X454500Y269583D01*
D02*
G37*
G36*
X448421Y265500D02*
X445000D01*
Y262079D01*
X445532Y262149D01*
X446493Y262547D01*
X447319Y263181D01*
X447953Y264007D01*
X448351Y264968D01*
X448421Y265500D01*
D02*
G37*
G36*
X444000D02*
X440579D01*
X440649Y264968D01*
X441047Y264007D01*
X441681Y263181D01*
X442507Y262547D01*
X443468Y262149D01*
X444000Y262079D01*
Y265500D01*
D02*
G37*
G36*
X531500Y268083D02*
X530573Y267961D01*
X529708Y267603D01*
X528966Y267034D01*
X528397Y266292D01*
X528039Y265427D01*
X527917Y264500D01*
X528039Y263573D01*
X528397Y262708D01*
X528966Y261966D01*
X529708Y261397D01*
X530573Y261039D01*
X531500Y260917D01*
X532428Y261039D01*
X533292Y261397D01*
X534034Y261966D01*
X534603Y262708D01*
X534961Y263573D01*
X535083Y264500D01*
X534961Y265427D01*
X534603Y266292D01*
X534034Y267034D01*
X533292Y267603D01*
X532428Y267961D01*
X531500Y268083D01*
D02*
G37*
G36*
X295421Y263000D02*
X292000D01*
Y259579D01*
X292532Y259649D01*
X293493Y260047D01*
X294319Y260681D01*
X294953Y261507D01*
X295351Y262468D01*
X295421Y263000D01*
D02*
G37*
G36*
X291000D02*
X287579D01*
X287649Y262468D01*
X288047Y261507D01*
X288681Y260681D01*
X289507Y260047D01*
X290468Y259649D01*
X291000Y259579D01*
Y263000D01*
D02*
G37*
G36*
X494500Y262856D02*
X493790Y262715D01*
X493188Y262313D01*
X492785Y261710D01*
X492644Y261000D01*
X492785Y260290D01*
X493188Y259687D01*
X493790Y259285D01*
X494500Y259144D01*
X495210Y259285D01*
X495813Y259687D01*
X495940Y259878D01*
X509268D01*
X509285Y259790D01*
X509688Y259188D01*
X510290Y258785D01*
X511000Y258644D01*
X511710Y258785D01*
X512313Y259188D01*
X512715Y259790D01*
X512856Y260500D01*
X512715Y261210D01*
X512313Y261812D01*
X511710Y262215D01*
X511000Y262356D01*
X510290Y262215D01*
X510150Y262122D01*
X495940D01*
X495813Y262313D01*
X495210Y262715D01*
X494500Y262856D01*
D02*
G37*
G36*
X454500Y259583D02*
X453573Y259461D01*
X452708Y259103D01*
X451966Y258534D01*
X451397Y257792D01*
X451039Y256927D01*
X450917Y256000D01*
X451039Y255073D01*
X451397Y254208D01*
X451966Y253466D01*
X452708Y252897D01*
X453573Y252539D01*
X454500Y252417D01*
X455428Y252539D01*
X456292Y252897D01*
X457034Y253466D01*
X457603Y254208D01*
X457961Y255073D01*
X458083Y256000D01*
X457961Y256927D01*
X457603Y257792D01*
X457034Y258534D01*
X456292Y259103D01*
X455428Y259461D01*
X454500Y259583D01*
D02*
G37*
G36*
X444500D02*
X443573Y259461D01*
X442708Y259103D01*
X441966Y258534D01*
X441397Y257792D01*
X441039Y256927D01*
X440917Y256000D01*
X441039Y255073D01*
X441397Y254208D01*
X441966Y253466D01*
X442708Y252897D01*
X443573Y252539D01*
X444500Y252417D01*
X445428Y252539D01*
X446292Y252897D01*
X447034Y253466D01*
X447603Y254208D01*
X447961Y255073D01*
X448083Y256000D01*
X447961Y256927D01*
X447603Y257792D01*
X447034Y258534D01*
X446292Y259103D01*
X445428Y259461D01*
X444500Y259583D01*
D02*
G37*
G36*
X531500Y258083D02*
X530573Y257961D01*
X529708Y257603D01*
X528966Y257034D01*
X528397Y256292D01*
X528039Y255427D01*
X527917Y254500D01*
X528032Y253622D01*
X528001Y253460D01*
X527775Y253121D01*
X525000D01*
X524571Y253036D01*
X524207Y252793D01*
X524207Y252793D01*
X523207Y251793D01*
X522964Y251429D01*
X522878Y251000D01*
X522878Y251000D01*
Y239465D01*
X521535Y238122D01*
X466940D01*
X466813Y238313D01*
X466210Y238715D01*
X465500Y238856D01*
X464790Y238715D01*
X464187Y238313D01*
X463785Y237710D01*
X463644Y237000D01*
X463785Y236290D01*
X464187Y235687D01*
X464790Y235285D01*
X465500Y235144D01*
X466210Y235285D01*
X466813Y235687D01*
X466940Y235878D01*
X522000D01*
X522000Y235878D01*
X522429Y235964D01*
X522793Y236207D01*
X524793Y238207D01*
X524793Y238207D01*
X525036Y238571D01*
X525122Y239000D01*
X525122Y239000D01*
Y250535D01*
X525465Y250879D01*
X529000D01*
X529000Y250878D01*
X529429Y250964D01*
X529793Y251207D01*
X529902Y251316D01*
X530573Y251039D01*
X531500Y250917D01*
X532428Y251039D01*
X533292Y251397D01*
X534034Y251966D01*
X534603Y252708D01*
X534961Y253573D01*
X535083Y254500D01*
X534961Y255427D01*
X534603Y256292D01*
X534034Y257034D01*
X533292Y257603D01*
X532428Y257961D01*
X531500Y258083D01*
D02*
G37*
G36*
X291500Y257083D02*
X290573Y256961D01*
X289708Y256603D01*
X288966Y256034D01*
X288397Y255292D01*
X288039Y254427D01*
X287917Y253500D01*
X288039Y252573D01*
X288397Y251708D01*
X288966Y250966D01*
X289708Y250397D01*
X290573Y250039D01*
X291500Y249917D01*
X292427Y250039D01*
X293292Y250397D01*
X294034Y250966D01*
X294603Y251708D01*
X294961Y252573D01*
X295083Y253500D01*
X294961Y254427D01*
X294603Y255292D01*
X294034Y256034D01*
X293292Y256603D01*
X292427Y256961D01*
X291500Y257083D01*
D02*
G37*
G36*
X532000Y248421D02*
Y245000D01*
X535421D01*
X535351Y245532D01*
X534953Y246493D01*
X534319Y247319D01*
X533493Y247953D01*
X532532Y248351D01*
X532000Y248421D01*
D02*
G37*
G36*
X531000D02*
X530468Y248351D01*
X529507Y247953D01*
X528681Y247319D01*
X528047Y246493D01*
X527649Y245532D01*
X527579Y245000D01*
X531000D01*
Y248421D01*
D02*
G37*
G36*
X458053Y249553D02*
X450947D01*
Y242447D01*
X458053D01*
Y249553D01*
D02*
G37*
G36*
X535421Y244000D02*
X532000D01*
Y240579D01*
X532532Y240649D01*
X533493Y241047D01*
X534319Y241681D01*
X534953Y242507D01*
X535351Y243468D01*
X535421Y244000D01*
D02*
G37*
G36*
X531000D02*
X527579D01*
X527649Y243468D01*
X528047Y242507D01*
X528681Y241681D01*
X529507Y241047D01*
X530468Y240649D01*
X531000Y240579D01*
Y244000D01*
D02*
G37*
G36*
X291500Y247083D02*
X290573Y246961D01*
X289708Y246603D01*
X288966Y246034D01*
X288397Y245292D01*
X288039Y244427D01*
X287917Y243500D01*
X288039Y242573D01*
X288397Y241708D01*
X288966Y240966D01*
X289708Y240397D01*
X290573Y240039D01*
X291500Y239917D01*
X292427Y240039D01*
X293292Y240397D01*
X294034Y240966D01*
X294603Y241708D01*
X294961Y242573D01*
X295083Y243500D01*
X294961Y244427D01*
X294603Y245292D01*
X294034Y246034D01*
X293292Y246603D01*
X292427Y246961D01*
X291500Y247083D01*
D02*
G37*
G36*
X419165Y239000D02*
X417500D01*
Y237335D01*
X417866Y237408D01*
X418601Y237899D01*
X419092Y238634D01*
X419165Y239000D01*
D02*
G37*
G36*
X399000Y350856D02*
X398290Y350715D01*
X397688Y350312D01*
X397285Y349710D01*
X397144Y349000D01*
X397285Y348290D01*
X397688Y347688D01*
X397879Y347560D01*
Y342500D01*
X397878Y342500D01*
X397964Y342071D01*
X398207Y341707D01*
X426378Y313535D01*
Y265465D01*
X410725Y249811D01*
X410500Y249856D01*
X409790Y249715D01*
X409188Y249312D01*
X408785Y248710D01*
X408644Y248000D01*
X408785Y247290D01*
X409188Y246688D01*
X409790Y246285D01*
X410500Y246144D01*
X411210Y246285D01*
X411812Y246688D01*
X412215Y247290D01*
X412356Y248000D01*
X412311Y248225D01*
X428293Y264207D01*
X428378Y264335D01*
X428878Y264183D01*
Y256965D01*
X410035Y238122D01*
X406440D01*
X406313Y238313D01*
X405710Y238715D01*
X405000Y238856D01*
X404290Y238715D01*
X403687Y238313D01*
X403285Y237710D01*
X403144Y237000D01*
X403285Y236290D01*
X403687Y235687D01*
X404290Y235285D01*
X405000Y235144D01*
X405710Y235285D01*
X406313Y235687D01*
X406440Y235878D01*
X410500D01*
X410500Y235878D01*
X410929Y235964D01*
X411293Y236207D01*
X414286Y239200D01*
X414828Y239035D01*
X414908Y238634D01*
X415399Y237899D01*
X416134Y237408D01*
X416500Y237335D01*
Y239500D01*
X417000D01*
Y240000D01*
X419165D01*
X419092Y240366D01*
X418601Y241101D01*
X417866Y241592D01*
X417465Y241671D01*
X417300Y242214D01*
X430793Y255707D01*
X430793Y255707D01*
X431036Y256071D01*
X431122Y256500D01*
Y318000D01*
X431122Y318000D01*
X431036Y318429D01*
X430793Y318793D01*
X403811Y345775D01*
X403856Y346000D01*
X403715Y346710D01*
X403312Y347312D01*
X402710Y347715D01*
X402000Y347856D01*
X401290Y347715D01*
X400968Y347500D01*
X400951Y347496D01*
X400407Y347724D01*
X400392Y347806D01*
X400715Y348290D01*
X400856Y349000D01*
X400715Y349710D01*
X400313Y350312D01*
X399710Y350715D01*
X399000Y350856D01*
D02*
G37*
G36*
X409500Y234665D02*
Y233000D01*
X411165D01*
X411092Y233366D01*
X410601Y234101D01*
X409866Y234592D01*
X409500Y234665D01*
D02*
G37*
G36*
X408500D02*
X408134Y234592D01*
X407399Y234101D01*
X406908Y233366D01*
X406836Y233000D01*
X408500D01*
Y234665D01*
D02*
G37*
G36*
X535053Y238053D02*
X527947D01*
Y230947D01*
X535053D01*
Y238053D01*
D02*
G37*
G36*
X411165Y232000D02*
X409500D01*
Y230335D01*
X409866Y230408D01*
X410601Y230899D01*
X411092Y231634D01*
X411165Y232000D01*
D02*
G37*
G36*
X408500D02*
X406836D01*
X406908Y231634D01*
X407399Y230899D01*
X408134Y230408D01*
X408500Y230335D01*
Y232000D01*
D02*
G37*
G36*
X295053Y237053D02*
X287947D01*
Y229947D01*
X295053D01*
Y237053D01*
D02*
G37*
G36*
X401996Y167843D02*
Y165319D01*
X404178D01*
X404101Y165910D01*
X403831Y166560D01*
X403403Y167119D01*
X402844Y167547D01*
X402194Y167817D01*
X401996Y167843D01*
D02*
G37*
G36*
X400996D02*
X400798Y167817D01*
X400148Y167547D01*
X399589Y167119D01*
X399161Y166560D01*
X398892Y165910D01*
X398814Y165319D01*
X400996D01*
Y167843D01*
D02*
G37*
G36*
X419516Y167745D02*
Y165220D01*
X421698D01*
X421620Y165812D01*
X421351Y166462D01*
X420922Y167021D01*
X420364Y167449D01*
X419714Y167718D01*
X419516Y167745D01*
D02*
G37*
G36*
X418516D02*
X418318Y167718D01*
X417668Y167449D01*
X417109Y167021D01*
X416681Y166462D01*
X416411Y165812D01*
X416333Y165220D01*
X418516D01*
Y167745D01*
D02*
G37*
G36*
X404178Y164319D02*
X401996D01*
Y161794D01*
X402194Y161820D01*
X402844Y162090D01*
X403403Y162518D01*
X403831Y163077D01*
X404101Y163727D01*
X404178Y164319D01*
D02*
G37*
G36*
X400996D02*
X398814D01*
X398892Y163727D01*
X399161Y163077D01*
X399589Y162518D01*
X400148Y162090D01*
X400798Y161820D01*
X400996Y161794D01*
Y164319D01*
D02*
G37*
G36*
X421698Y164220D02*
X419516D01*
Y161696D01*
X419714Y161722D01*
X420364Y161992D01*
X420922Y162420D01*
X421351Y162978D01*
X421620Y163629D01*
X421698Y164220D01*
D02*
G37*
G36*
X418516D02*
X416333D01*
X416411Y163629D01*
X416681Y162978D01*
X417109Y162420D01*
X417668Y161992D01*
X418318Y161722D01*
X418516Y161696D01*
Y164220D01*
D02*
G37*
G36*
X427194Y157409D02*
Y154000D01*
X429291D01*
Y154878D01*
X429203Y155550D01*
X428943Y156176D01*
X428530Y156714D01*
X427992Y157127D01*
X427366Y157387D01*
X427194Y157409D01*
D02*
G37*
G36*
X426194D02*
X426022Y157387D01*
X425395Y157127D01*
X424858Y156714D01*
X424445Y156176D01*
X424185Y155550D01*
X424097Y154878D01*
Y154000D01*
X426194D01*
Y157409D01*
D02*
G37*
G36*
X394318D02*
Y154000D01*
X396415D01*
Y154878D01*
X396327Y155550D01*
X396067Y156176D01*
X395655Y156714D01*
X395117Y157127D01*
X394491Y157387D01*
X394318Y157409D01*
D02*
G37*
G36*
X393318D02*
X393146Y157387D01*
X392520Y157127D01*
X391982Y156714D01*
X391569Y156176D01*
X391310Y155550D01*
X391221Y154878D01*
Y154000D01*
X393318D01*
Y157409D01*
D02*
G37*
G36*
X429291Y153000D02*
X427194D01*
Y149591D01*
X427366Y149613D01*
X427992Y149873D01*
X428530Y150286D01*
X428943Y150823D01*
X429203Y151450D01*
X429291Y152122D01*
Y153000D01*
D02*
G37*
G36*
X426194D02*
X424097D01*
Y152122D01*
X424185Y151450D01*
X424445Y150823D01*
X424858Y150286D01*
X425395Y149873D01*
X426022Y149613D01*
X426194Y149591D01*
Y153000D01*
D02*
G37*
G36*
X396415D02*
X394318D01*
Y149591D01*
X394491Y149613D01*
X395117Y149873D01*
X395655Y150286D01*
X396067Y150823D01*
X396327Y151450D01*
X396415Y152122D01*
Y153000D01*
D02*
G37*
G36*
X393318D02*
X391221D01*
Y152122D01*
X391310Y151450D01*
X391569Y150823D01*
X391982Y150286D01*
X392520Y149873D01*
X393146Y149613D01*
X393318Y149591D01*
Y153000D01*
D02*
G37*
%LPD*%
D23*
X409000Y232500D02*
X416000Y239500D01*
X417000D02*
X417500Y239000D01*
X416000Y239500D02*
X417000D01*
X410500Y237000D02*
X430000Y256500D01*
X405000Y237000D02*
X410500D01*
X494500Y261000D02*
X510500D01*
X511000Y260500D01*
X390500Y332000D02*
Y332500D01*
X389500Y333500D02*
X390500Y332500D01*
X389500Y333500D02*
Y350000D01*
X394500Y355000D01*
X407000D01*
X436000Y326000D01*
Y287500D02*
Y326000D01*
X440000Y284500D02*
Y314500D01*
X500500Y375000D01*
X436000Y279500D02*
Y287500D01*
X433000Y276500D02*
X436000Y279500D01*
X433000Y257500D02*
Y276500D01*
X413000Y296000D02*
X418500Y290500D01*
X406500Y296000D02*
X413000D01*
X329000Y373500D02*
X406500Y296000D01*
X411000Y294000D02*
X414500Y290500D01*
X408130Y294000D02*
X411000D01*
X408030Y294100D02*
X408130Y294000D01*
X404900Y294100D02*
X408030D01*
X335500Y363500D02*
X404900Y294100D01*
X398500Y288500D02*
X399820Y287179D01*
X401961D01*
X402282Y287500D02*
X406000D01*
X401961Y287179D02*
X402282Y287500D01*
X406000D02*
X407000Y286500D01*
X409782Y291500D02*
X411000D01*
X409461Y291821D02*
X409782Y291500D01*
X407539Y291821D02*
X409461D01*
X407218Y291500D02*
X407539Y291821D01*
X404500Y291500D02*
X407218D01*
X342500Y353500D02*
X404500Y291500D01*
X398500Y288500D02*
Y292000D01*
X347000Y343500D02*
X398500Y292000D01*
X291500Y343500D02*
X347000D01*
X529000Y252000D02*
X531500Y254500D01*
X525000Y252000D02*
X529000D01*
X524000Y251000D02*
X525000Y252000D01*
X524000Y239000D02*
Y251000D01*
X522000Y237000D02*
X524000Y239000D01*
X465500Y237000D02*
X522000D01*
X433000Y257500D02*
X444500Y246000D01*
X433000Y234500D02*
X444500Y246000D01*
X433000Y228500D02*
Y234500D01*
X385500Y324500D02*
X387417Y326417D01*
X405917D01*
X291500Y373500D02*
X329000D01*
X291500Y363500D02*
X335500D01*
X291500Y353500D02*
X342500D01*
X401000Y289500D02*
X408500D01*
X399500Y284500D02*
X403500D01*
X350500Y333500D02*
X399500Y284500D01*
X358000Y323500D02*
X406000Y275500D01*
X430000Y256500D02*
Y318000D01*
X402000Y346000D02*
X430000Y318000D01*
X427500Y265000D02*
Y314000D01*
X410500Y248000D02*
X427500Y265000D01*
X399000Y342500D02*
X427500Y314000D01*
X399000Y342500D02*
Y349000D01*
X291500Y303500D02*
X292000Y304000D01*
X372000D01*
X399500Y276500D01*
Y270500D02*
Y276500D01*
X291500Y333500D02*
X350500D01*
X291500Y323500D02*
X358000D01*
X365000Y313500D02*
X403000Y275500D01*
X291500Y313500D02*
X365000D01*
X403000Y272500D02*
Y275500D01*
X406000Y270500D02*
Y275500D01*
X411000Y287000D02*
Y291500D01*
X414500Y287000D02*
Y290500D01*
X418500Y287000D02*
Y290500D01*
X467000Y294500D02*
X531500D01*
X452500Y309000D02*
X467000Y294500D01*
X452500Y309000D02*
Y322500D01*
X462500Y304500D02*
X531500D01*
X456000Y311000D02*
X462500Y304500D01*
X456000Y311000D02*
Y319000D01*
X461000Y315500D02*
X530500D01*
X531500Y314500D01*
X474500Y325000D02*
X529000D01*
X530000Y326000D01*
X531500Y324500D01*
X488000Y334500D02*
X531500D01*
X531000Y345000D02*
X531500Y344500D01*
X502500Y345000D02*
X531000D01*
X452500Y280500D02*
Y296500D01*
X458500Y274500D02*
X531500D01*
X452500Y280500D02*
X458500Y274500D01*
X531000Y375000D02*
X531500Y374500D01*
X500500Y375000D02*
X531000D01*
D24*
X454500Y246000D02*
D03*
X531500Y234500D02*
D03*
X291500Y233500D02*
D03*
D25*
X444500Y246000D02*
D03*
X454500Y256000D02*
D03*
X444500D02*
D03*
X454500Y266000D02*
D03*
X444500D02*
D03*
X531500Y374500D02*
D03*
Y364500D02*
D03*
Y354500D02*
D03*
Y344500D02*
D03*
Y334500D02*
D03*
Y324500D02*
D03*
Y314500D02*
D03*
Y304500D02*
D03*
Y294500D02*
D03*
Y284500D02*
D03*
Y274500D02*
D03*
Y264500D02*
D03*
Y254500D02*
D03*
Y244500D02*
D03*
X291500Y373500D02*
D03*
Y363500D02*
D03*
Y353500D02*
D03*
Y343500D02*
D03*
Y333500D02*
D03*
Y323500D02*
D03*
Y313500D02*
D03*
Y303500D02*
D03*
Y293500D02*
D03*
Y283500D02*
D03*
Y273500D02*
D03*
Y263500D02*
D03*
Y253500D02*
D03*
Y243500D02*
D03*
D26*
X401496Y164819D02*
D03*
X419016Y164720D02*
D03*
D27*
X393818Y153500D02*
D03*
X426694D02*
D03*
D28*
X417000Y239500D02*
D03*
X409000Y232500D02*
D03*
X405000Y237000D02*
D03*
X494500Y261000D02*
D03*
X440000Y284500D02*
D03*
X436000Y287500D02*
D03*
X511000Y260500D02*
D03*
X465500Y237000D02*
D03*
X433000Y228500D02*
D03*
X385500Y324500D02*
D03*
X405917Y326417D02*
D03*
X405942Y300942D02*
D03*
X401000Y289500D02*
D03*
X407000Y286500D02*
D03*
X403500Y284500D02*
D03*
X410500Y248000D02*
D03*
X402000Y346000D02*
D03*
X399000Y349000D02*
D03*
X399500Y270500D02*
D03*
X403000Y272500D02*
D03*
X406000Y270500D02*
D03*
X411000Y287000D02*
D03*
X414500D02*
D03*
X418500D02*
D03*
X408500Y289500D02*
D03*
X452500Y322500D02*
D03*
X456000Y319000D02*
D03*
X461000Y315500D02*
D03*
X474500Y325000D02*
D03*
X488000Y334500D02*
D03*
X502500Y345000D02*
D03*
X452500Y296500D02*
D03*
D29*
X390500Y332000D02*
D03*
M02*
