G04 Layer_Color=255*
%FSLAX25Y25*%
%MOIN*%
G70*
G01*
G75*
%ADD10R,0.05512X0.04331*%
%ADD11R,0.01772X0.02953*%
%ADD12O,0.06496X0.01969*%
%ADD13O,0.05906X0.02165*%
%ADD14O,0.02165X0.05906*%
%ADD15R,0.09055X0.09055*%
%ADD16R,0.08268X0.22047*%
%ADD17R,0.05906X0.05512*%
%ADD18R,0.10236X0.05906*%
%ADD19R,0.01575X0.05315*%
%ADD20R,0.06890X0.03543*%
%ADD21R,0.06890X0.12598*%
%ADD22R,0.05906X0.09055*%
%ADD24R,0.05906X0.05906*%
%ADD25C,0.05906*%
%ADD26O,0.03347X0.04134*%
%ADD27O,0.03150X0.05906*%
D10*
X519000Y362500D02*
D03*
Y368406D02*
D03*
X509167Y362500D02*
D03*
Y368406D02*
D03*
X470167Y190500D02*
D03*
Y184595D02*
D03*
X341000Y199547D02*
D03*
Y205453D02*
D03*
X393500Y264500D02*
D03*
Y258594D02*
D03*
X359500Y297547D02*
D03*
Y303453D02*
D03*
X480000Y190500D02*
D03*
Y184595D02*
D03*
X359500Y260595D02*
D03*
Y266500D02*
D03*
X356250Y199547D02*
D03*
Y205453D02*
D03*
D11*
X392563Y337382D02*
D03*
X394531D02*
D03*
X396500D02*
D03*
X398468D02*
D03*
X392563Y342500D02*
D03*
X394531D02*
D03*
X396500D02*
D03*
X398468D02*
D03*
D12*
X395728Y247799D02*
D03*
Y245138D02*
D03*
Y242476D02*
D03*
Y239815D02*
D03*
Y237154D02*
D03*
Y234492D02*
D03*
Y231831D02*
D03*
Y229169D02*
D03*
Y226508D02*
D03*
Y223847D02*
D03*
Y221185D02*
D03*
Y218524D02*
D03*
Y215862D02*
D03*
Y213201D02*
D03*
X424272Y247799D02*
D03*
Y245138D02*
D03*
Y242476D02*
D03*
Y239815D02*
D03*
Y237154D02*
D03*
Y234492D02*
D03*
Y231831D02*
D03*
Y229169D02*
D03*
Y226508D02*
D03*
Y223847D02*
D03*
Y221185D02*
D03*
Y218524D02*
D03*
Y215862D02*
D03*
Y213201D02*
D03*
D13*
X393909Y305524D02*
D03*
Y302374D02*
D03*
Y299224D02*
D03*
Y296075D02*
D03*
Y292925D02*
D03*
Y289776D02*
D03*
Y286626D02*
D03*
Y283476D02*
D03*
X427374D02*
D03*
Y286626D02*
D03*
Y289776D02*
D03*
Y292925D02*
D03*
Y296075D02*
D03*
Y299224D02*
D03*
Y302374D02*
D03*
Y305524D02*
D03*
D14*
X399618Y277768D02*
D03*
X402768D02*
D03*
X405917D02*
D03*
X409067D02*
D03*
X412217D02*
D03*
X415366D02*
D03*
X418516D02*
D03*
X421665D02*
D03*
Y311232D02*
D03*
X418516D02*
D03*
X415366D02*
D03*
X412217D02*
D03*
X409067D02*
D03*
X405917D02*
D03*
X402768D02*
D03*
X399618D02*
D03*
D15*
X377500Y184216D02*
D03*
Y166500D02*
D03*
D16*
X374500Y261784D02*
D03*
Y299185D02*
D03*
D17*
X515000Y245563D02*
D03*
Y253437D02*
D03*
X470500Y245563D02*
D03*
Y253437D02*
D03*
X485333Y245563D02*
D03*
Y253437D02*
D03*
X500167Y245563D02*
D03*
Y253437D02*
D03*
D18*
X475000Y210689D02*
D03*
Y222500D02*
D03*
X491000Y210689D02*
D03*
Y222500D02*
D03*
X507000Y210689D02*
D03*
Y222500D02*
D03*
D19*
X405335Y163933D02*
D03*
X407795Y163933D02*
D03*
X410256D02*
D03*
X412717Y163933D02*
D03*
X415177D02*
D03*
D20*
X453803Y181445D02*
D03*
Y190500D02*
D03*
Y199555D02*
D03*
D21*
X429197Y190500D02*
D03*
D22*
X410500Y363992D02*
D03*
Y337500D02*
D03*
D24*
X454500Y246000D02*
D03*
X531500Y234500D02*
D03*
X291500Y233500D02*
D03*
D25*
X444500Y246000D02*
D03*
X454500Y256000D02*
D03*
X444500D02*
D03*
X454500Y266000D02*
D03*
X444500D02*
D03*
X531500Y374500D02*
D03*
Y364500D02*
D03*
Y354500D02*
D03*
Y344500D02*
D03*
Y334500D02*
D03*
Y324500D02*
D03*
Y314500D02*
D03*
Y304500D02*
D03*
Y294500D02*
D03*
Y284500D02*
D03*
Y274500D02*
D03*
Y264500D02*
D03*
Y254500D02*
D03*
Y244500D02*
D03*
X291500Y373500D02*
D03*
Y363500D02*
D03*
Y353500D02*
D03*
Y343500D02*
D03*
Y333500D02*
D03*
Y323500D02*
D03*
Y313500D02*
D03*
Y303500D02*
D03*
Y293500D02*
D03*
Y283500D02*
D03*
Y273500D02*
D03*
Y263500D02*
D03*
Y253500D02*
D03*
Y243500D02*
D03*
D26*
X401496Y164819D02*
D03*
X419016Y164720D02*
D03*
D27*
X393818Y153500D02*
D03*
X426694D02*
D03*
M02*
