G04 Layer_Color=16711935*
%FSLAX25Y25*%
%MOIN*%
G70*
G01*
G75*
%ADD30C,0.00394*%
D30*
X404488Y247626D02*
G03*
X404488Y247626I-1969J0D01*
G01*
X402374Y304736D02*
G03*
X402374Y304736I-1969J0D01*
G01*
X516146Y361122D02*
X521854D01*
X516146Y369783D02*
X521854D01*
X516146Y361122D02*
Y369783D01*
X521854Y361122D02*
Y369783D01*
X506312Y361122D02*
X512021D01*
X506312Y369783D02*
X512021D01*
X506312Y361122D02*
Y369783D01*
X512021Y361122D02*
Y369783D01*
X467312Y191878D02*
X473021D01*
X467312Y183217D02*
X473021D01*
Y191878D01*
X467312Y183217D02*
Y191878D01*
X391382Y338563D02*
Y341319D01*
Y338563D02*
X391480D01*
Y337382D02*
Y338563D01*
Y337382D02*
X393646D01*
Y338563D01*
X393449D02*
X393646D01*
X393449Y337382D02*
Y338563D01*
Y337382D02*
X395614D01*
Y338563D01*
X395417D02*
X395614D01*
X395417Y337382D02*
Y338563D01*
Y337382D02*
X397583D01*
Y338563D01*
X397386D02*
X397583D01*
X397386Y337382D02*
Y338563D01*
Y337382D02*
X399551D01*
Y338563D01*
X399650D01*
Y341319D01*
X391382D02*
X391480D01*
Y342500D01*
X393646D01*
Y341319D02*
Y342500D01*
X393449Y341319D02*
X393646D01*
X393449D02*
Y342500D01*
X395614D01*
Y341319D02*
Y342500D01*
X395417Y341319D02*
X395614D01*
X395417D02*
Y342500D01*
X397583D01*
Y341319D02*
Y342500D01*
X397386Y341319D02*
X397583D01*
X397386D02*
Y342500D01*
X399551D01*
Y341319D02*
Y342500D01*
Y341319D02*
X399650D01*
X398976Y209831D02*
Y251169D01*
X421024Y209831D02*
Y251169D01*
X398976D02*
X421024D01*
X398976Y209831D02*
X421024D01*
X396862Y280720D02*
Y308279D01*
X424421Y280720D02*
Y308279D01*
X396862D02*
X424421D01*
X396862Y280720D02*
X424421D01*
X338146Y198169D02*
X343854D01*
X338146Y206831D02*
X343854D01*
X338146Y198169D02*
Y206831D01*
X343854Y198169D02*
Y206831D01*
X390646Y265878D02*
X396354D01*
X390646Y257217D02*
X396354D01*
Y265878D01*
X390646Y257217D02*
Y265878D01*
X512244Y245268D02*
X517756D01*
X512244Y253732D02*
X517756D01*
X512244Y245268D02*
Y253732D01*
X517756Y245268D02*
Y253732D01*
X356646Y296169D02*
X362354D01*
X356646Y304831D02*
X362354D01*
X356646Y296169D02*
Y304831D01*
X362354Y296169D02*
Y304831D01*
X477146Y191878D02*
X482854D01*
X477146Y183217D02*
X482854D01*
Y191878D01*
X477146Y183217D02*
Y191878D01*
X467744Y245268D02*
X473256D01*
X467744Y253732D02*
X473256D01*
X467744Y245268D02*
Y253732D01*
X473256Y245268D02*
Y253732D01*
X482577Y245268D02*
X488089D01*
X482577Y253732D02*
X488089D01*
X482577Y245268D02*
Y253732D01*
X488089Y245268D02*
Y253732D01*
X497411Y245268D02*
X502923D01*
X497411Y253732D02*
X502923D01*
X497411Y245268D02*
Y253732D01*
X502923Y245268D02*
Y253732D01*
X448783Y177311D02*
Y203689D01*
X434216Y177311D02*
Y203689D01*
Y177311D02*
X448783D01*
X434216Y203689D02*
X448783D01*
X356646Y259216D02*
X362354D01*
X356646Y267878D02*
X362354D01*
X356646Y259216D02*
Y267878D01*
X362354Y259216D02*
Y267878D01*
X353396Y198169D02*
X359104D01*
X353396Y206831D02*
X359104D01*
X353396Y198169D02*
Y206831D01*
X359104Y198169D02*
Y206831D01*
M02*
