G04 Layer_Color=16711935*
%FSLAX25Y25*%
%MOIN*%
G70*
G01*
G75*
%ADD48R,0.06706X0.06706*%
%ADD49C,0.06706*%
%ADD50O,0.04147X0.04934*%
%ADD51O,0.03950X0.06706*%
%ADD52C,0.03241*%
%ADD53C,0.03367*%
D48*
X454500Y246000D02*
D03*
X531500Y234500D02*
D03*
X291500Y233500D02*
D03*
D49*
X444500Y246000D02*
D03*
X454500Y256000D02*
D03*
X444500D02*
D03*
X454500Y266000D02*
D03*
X444500D02*
D03*
X531500Y374500D02*
D03*
Y364500D02*
D03*
Y354500D02*
D03*
Y344500D02*
D03*
Y334500D02*
D03*
Y324500D02*
D03*
Y314500D02*
D03*
Y304500D02*
D03*
Y294500D02*
D03*
Y284500D02*
D03*
Y274500D02*
D03*
Y264500D02*
D03*
Y254500D02*
D03*
Y244500D02*
D03*
X291500Y373500D02*
D03*
Y363500D02*
D03*
Y353500D02*
D03*
Y343500D02*
D03*
Y333500D02*
D03*
Y323500D02*
D03*
Y313500D02*
D03*
Y303500D02*
D03*
Y293500D02*
D03*
Y283500D02*
D03*
Y273500D02*
D03*
Y263500D02*
D03*
Y253500D02*
D03*
Y243500D02*
D03*
D50*
X401496Y164819D02*
D03*
X419016Y164720D02*
D03*
D51*
X393818Y153500D02*
D03*
X426694D02*
D03*
D52*
X417000Y239500D02*
D03*
X409000Y232500D02*
D03*
X405000Y237000D02*
D03*
X494500Y261000D02*
D03*
X440000Y284500D02*
D03*
X436000Y287500D02*
D03*
X511000Y260500D02*
D03*
X465500Y237000D02*
D03*
X433000Y228500D02*
D03*
X385500Y324500D02*
D03*
X405917Y326417D02*
D03*
X405942Y300942D02*
D03*
X401000Y289500D02*
D03*
X407000Y286500D02*
D03*
X403500Y284500D02*
D03*
X410500Y248000D02*
D03*
X402000Y346000D02*
D03*
X399000Y349000D02*
D03*
X399500Y270500D02*
D03*
X403000Y272500D02*
D03*
X406000Y270500D02*
D03*
X411000Y287000D02*
D03*
X414500D02*
D03*
X418500D02*
D03*
X408500Y289500D02*
D03*
X452500Y322500D02*
D03*
X456000Y319000D02*
D03*
X461000Y315500D02*
D03*
X474500Y325000D02*
D03*
X488000Y334500D02*
D03*
X502500Y345000D02*
D03*
X452500Y296500D02*
D03*
D53*
X390500Y332000D02*
D03*
M02*
