G04 Layer_Physical_Order=1*
G04 Layer_Color=255*
%FSLAX25Y25*%
%MOIN*%
G70*
G01*
G75*
%ADD10R,0.05512X0.04331*%
%ADD11R,0.01772X0.02953*%
%ADD12O,0.06496X0.01969*%
%ADD13O,0.05906X0.02165*%
%ADD14O,0.02165X0.05906*%
%ADD15R,0.09055X0.09055*%
%ADD16R,0.08268X0.22047*%
%ADD17R,0.05906X0.05512*%
%ADD18R,0.10236X0.05906*%
%ADD19R,0.01575X0.05315*%
%ADD20R,0.06890X0.03543*%
%ADD21R,0.06890X0.12598*%
%ADD22R,0.05906X0.09055*%
%ADD23C,0.01000*%
%ADD24R,0.05906X0.05906*%
%ADD25C,0.05906*%
%ADD26O,0.03347X0.04134*%
%ADD27O,0.03150X0.05906*%
%ADD28C,0.02441*%
%ADD29C,0.02567*%
G36*
X419173Y458189D02*
X426828Y457624D01*
X434445Y456685D01*
X442008Y455373D01*
X449497Y453691D01*
X456894Y451644D01*
X464182Y449236D01*
X471343Y446474D01*
X478360Y443364D01*
X485216Y439913D01*
X491894Y436129D01*
X498379Y432023D01*
X504654Y427603D01*
X510705Y422881D01*
X516517Y417868D01*
X522076Y412575D01*
X527368Y407017D01*
X532381Y401205D01*
X537104Y395154D01*
X541523Y388879D01*
X545629Y382394D01*
X549413Y375716D01*
X552864Y368860D01*
X555974Y361843D01*
X558736Y354682D01*
X561144Y347394D01*
X563191Y339997D01*
X564873Y332508D01*
X566185Y324945D01*
X567124Y317328D01*
X567689Y309673D01*
X567877Y302000D01*
X567689Y294327D01*
X567124Y286672D01*
X566185Y279055D01*
X564873Y271492D01*
X563191Y264003D01*
X561144Y256606D01*
X558736Y249318D01*
X555974Y242157D01*
X552864Y235140D01*
X549413Y228284D01*
X545629Y221606D01*
X541523Y215121D01*
X537104Y208846D01*
X532381Y202795D01*
X527368Y196983D01*
X522076Y191425D01*
X516517Y186132D01*
X510705Y181119D01*
X504654Y176397D01*
X498379Y171977D01*
X491894Y167871D01*
X485216Y164087D01*
X478360Y160636D01*
X471343Y157526D01*
X464182Y154764D01*
X456894Y152356D01*
X449497Y150309D01*
X442008Y148627D01*
X434445Y147315D01*
X426828Y146376D01*
X419173Y145811D01*
X411500Y145623D01*
X403827Y145811D01*
X396172Y146376D01*
X388555Y147315D01*
X380992Y148627D01*
X373503Y150309D01*
X366106Y152356D01*
X358818Y154764D01*
X351657Y157526D01*
X344640Y160636D01*
X337784Y164087D01*
X331106Y167871D01*
X324621Y171977D01*
X318346Y176397D01*
X312295Y181119D01*
X306483Y186132D01*
X300924Y191425D01*
X295632Y196983D01*
X290619Y202795D01*
X285896Y208846D01*
X281477Y215121D01*
X277371Y221606D01*
X273587Y228284D01*
X270136Y235140D01*
X267026Y242157D01*
X264264Y249318D01*
X261856Y256606D01*
X259809Y264003D01*
X258127Y271492D01*
X256815Y279055D01*
X255876Y286672D01*
X255311Y294327D01*
X255123Y302000D01*
X255311Y309673D01*
X255876Y317328D01*
X256815Y324945D01*
X258127Y332508D01*
X259809Y339997D01*
X261856Y347394D01*
X264264Y354682D01*
X267026Y361843D01*
X270136Y368860D01*
X273587Y375716D01*
X277371Y382394D01*
X281477Y388879D01*
X285896Y395154D01*
X290619Y401205D01*
X295632Y407017D01*
X300924Y412575D01*
X306483Y417868D01*
X312295Y422881D01*
X318346Y427603D01*
X324621Y432023D01*
X331106Y436129D01*
X337784Y439913D01*
X344640Y443364D01*
X351657Y446474D01*
X358818Y449236D01*
X366106Y451644D01*
X373503Y453691D01*
X380992Y455373D01*
X388555Y456685D01*
X396172Y457624D01*
X403827Y458189D01*
X411500Y458377D01*
X419173Y458189D01*
D02*
G37*
%LPC*%
G36*
X531500Y378083D02*
X530573Y377961D01*
X529708Y377603D01*
X528966Y377034D01*
X528397Y376292D01*
X528039Y375427D01*
X527917Y374500D01*
X528039Y373573D01*
X528397Y372708D01*
X528966Y371966D01*
X529708Y371397D01*
X530573Y371039D01*
X531500Y370917D01*
X532428Y371039D01*
X533292Y371397D01*
X534034Y371966D01*
X534603Y372708D01*
X534961Y373573D01*
X535083Y374500D01*
X534961Y375427D01*
X534603Y376292D01*
X534034Y377034D01*
X533292Y377603D01*
X532428Y377961D01*
X531500Y378083D01*
D02*
G37*
G36*
X291500Y377083D02*
X290573Y376961D01*
X289708Y376603D01*
X288966Y376034D01*
X288397Y375292D01*
X288039Y374427D01*
X287917Y373500D01*
X288039Y372573D01*
X288397Y371708D01*
X288966Y370966D01*
X289708Y370397D01*
X290573Y370039D01*
X291500Y369917D01*
X292427Y370039D01*
X293292Y370397D01*
X294034Y370966D01*
X294603Y371708D01*
X294961Y372573D01*
X295083Y373500D01*
X294961Y374427D01*
X294603Y375292D01*
X294034Y376034D01*
X293292Y376603D01*
X292427Y376961D01*
X291500Y377083D01*
D02*
G37*
G36*
X512923Y371571D02*
X509667D01*
Y368905D01*
X512923D01*
Y371571D01*
D02*
G37*
G36*
X508667D02*
X505411D01*
Y368905D01*
X508667D01*
Y371571D01*
D02*
G37*
G36*
X414453Y369520D02*
X411000D01*
Y364492D01*
X414453D01*
Y369520D01*
D02*
G37*
G36*
X410000D02*
X406547D01*
Y364492D01*
X410000D01*
Y369520D01*
D02*
G37*
G36*
X291500Y367083D02*
X290573Y366961D01*
X289708Y366603D01*
X288966Y366034D01*
X288397Y365292D01*
X288039Y364427D01*
X287917Y363500D01*
X288039Y362573D01*
X288397Y361708D01*
X288966Y360966D01*
X289708Y360397D01*
X290573Y360039D01*
X291500Y359917D01*
X292427Y360039D01*
X293292Y360397D01*
X294034Y360966D01*
X294603Y361708D01*
X294961Y362573D01*
X295083Y363500D01*
X294961Y364427D01*
X294603Y365292D01*
X294034Y366034D01*
X293292Y366603D01*
X292427Y366961D01*
X291500Y367083D01*
D02*
G37*
G36*
X522756Y362000D02*
X519500D01*
Y359335D01*
X522756D01*
Y362000D01*
D02*
G37*
G36*
X518500D02*
X515244D01*
Y359335D01*
X518500D01*
Y362000D01*
D02*
G37*
G36*
X414453Y363492D02*
X411000D01*
Y358465D01*
X414453D01*
Y363492D01*
D02*
G37*
G36*
X410000D02*
X406547D01*
Y358465D01*
X410000D01*
Y363492D01*
D02*
G37*
G36*
X512923Y367905D02*
X509167D01*
X505411D01*
Y365240D01*
X505811D01*
Y359735D01*
X508045D01*
Y347631D01*
X504730Y344316D01*
X504269Y344562D01*
X504356Y345000D01*
X504215Y345710D01*
X503813Y346312D01*
X503210Y346715D01*
X502500Y346856D01*
X501790Y346715D01*
X501188Y346312D01*
X500785Y345710D01*
X500644Y345000D01*
X500689Y344775D01*
X490306Y334392D01*
X489831Y334625D01*
X489715Y335210D01*
X489313Y335812D01*
X488710Y336215D01*
X488000Y336356D01*
X487290Y336215D01*
X486688Y335812D01*
X486285Y335210D01*
X486144Y334500D01*
X486189Y334275D01*
X476806Y324892D01*
X476331Y325125D01*
X476215Y325710D01*
X475812Y326312D01*
X475210Y326715D01*
X474500Y326856D01*
X473790Y326715D01*
X473187Y326312D01*
X472948Y325954D01*
X472707Y325793D01*
X463807Y316893D01*
X463564Y316529D01*
X463514Y316281D01*
X463214Y316068D01*
X462799Y316186D01*
X462697Y316237D01*
X462313Y316812D01*
X461710Y317215D01*
X461000Y317356D01*
X460290Y317215D01*
X459688Y316812D01*
X459493Y316522D01*
X419400D01*
X418971Y316436D01*
X418607Y316193D01*
X418607Y316193D01*
X417723Y315309D01*
X417480Y314945D01*
X417394Y314516D01*
X417292Y314395D01*
X416672Y314376D01*
X416488Y314564D01*
Y314902D01*
X419465Y317879D01*
X454560D01*
X454688Y317688D01*
X455290Y317285D01*
X456000Y317144D01*
X456710Y317285D01*
X457312Y317688D01*
X457715Y318290D01*
X457856Y319000D01*
X457715Y319710D01*
X457312Y320312D01*
X456710Y320715D01*
X456000Y320856D01*
X455290Y320715D01*
X454688Y320312D01*
X454560Y320122D01*
X419291D01*
X419084Y320621D01*
X419840Y321378D01*
X451060D01*
X451188Y321187D01*
X451790Y320785D01*
X452500Y320644D01*
X453210Y320785D01*
X453813Y321187D01*
X454215Y321790D01*
X454356Y322500D01*
X454215Y323210D01*
X453813Y323813D01*
X453210Y324215D01*
X452500Y324356D01*
X451790Y324215D01*
X451188Y323813D01*
X451060Y323622D01*
X419376D01*
X418947Y323536D01*
X418583Y323293D01*
X418583Y323293D01*
X411423Y316134D01*
X411180Y315770D01*
X411095Y315341D01*
X411095Y315340D01*
Y314377D01*
X411003Y314316D01*
X410450Y314296D01*
X410188Y314564D01*
Y319102D01*
X411293Y320207D01*
X411293Y320207D01*
X411536Y320571D01*
X411622Y321000D01*
X411622Y321000D01*
Y332372D01*
X414053D01*
Y342628D01*
X411622D01*
Y347000D01*
X411622Y347000D01*
X411536Y347429D01*
X411293Y347793D01*
X411293Y347793D01*
X406793Y352293D01*
X406429Y352536D01*
X406000Y352622D01*
X406000Y352622D01*
X395000D01*
X394571Y352536D01*
X394207Y352293D01*
X394207Y352293D01*
X391770Y349856D01*
X391527Y349492D01*
X391441Y349063D01*
X391441Y349063D01*
Y344576D01*
X391077D01*
Y340424D01*
X399954D01*
Y344280D01*
X400403Y344700D01*
X400688Y344688D01*
X401290Y344285D01*
X402000Y344144D01*
X402710Y344285D01*
X403312Y344688D01*
X403715Y345290D01*
X403856Y346000D01*
X403715Y346710D01*
X403312Y347312D01*
X402710Y347715D01*
X402000Y347856D01*
X401290Y347715D01*
X400806Y347392D01*
X400724Y347407D01*
X400496Y347951D01*
X400500Y347968D01*
X400715Y348290D01*
X400856Y349000D01*
X400715Y349710D01*
X400602Y349879D01*
X400870Y350378D01*
X405535D01*
X409378Y346535D01*
Y342628D01*
X406947D01*
Y332372D01*
X409378D01*
Y321465D01*
X408274Y320360D01*
X408031Y319996D01*
X407945Y319567D01*
X407945Y319567D01*
Y314377D01*
X407854Y314316D01*
X407301Y314296D01*
X407039Y314564D01*
Y324977D01*
X407230Y325105D01*
X407632Y325707D01*
X407773Y326417D01*
X407632Y327128D01*
X407230Y327730D01*
X406628Y328132D01*
X405917Y328274D01*
X405207Y328132D01*
X404605Y327730D01*
X404477Y327539D01*
X403547D01*
X397621Y333465D01*
Y335306D01*
X399954D01*
Y339458D01*
X391077D01*
Y335306D01*
X391441D01*
Y334528D01*
X390779Y333865D01*
X390500Y333920D01*
X389765Y333774D01*
X389142Y333358D01*
X388726Y332735D01*
X388580Y332000D01*
X388726Y331265D01*
X389142Y330642D01*
X389765Y330226D01*
X390500Y330080D01*
X391235Y330226D01*
X391858Y330642D01*
X392274Y331265D01*
X392420Y332000D01*
X392365Y332279D01*
X392863Y332777D01*
X393346Y332670D01*
X393400Y332606D01*
X393378Y332500D01*
X393464Y332071D01*
X393707Y331707D01*
X401646Y323768D01*
Y317122D01*
X386465D01*
X380708Y322879D01*
X380915Y323378D01*
X384060D01*
X384188Y323187D01*
X384790Y322785D01*
X385500Y322644D01*
X386210Y322785D01*
X386812Y323187D01*
X387215Y323790D01*
X387356Y324500D01*
X387215Y325210D01*
X386812Y325813D01*
X386210Y326215D01*
X385500Y326356D01*
X384790Y326215D01*
X384188Y325813D01*
X384060Y325622D01*
X356500D01*
X356500Y325622D01*
X356071Y325536D01*
X355707Y325293D01*
X355707Y325293D01*
X349535Y319122D01*
X289000D01*
X289000Y319122D01*
X288571Y319036D01*
X288207Y318793D01*
X288207Y318793D01*
X275207Y305793D01*
X274964Y305429D01*
X274878Y305000D01*
X274879Y305000D01*
Y270500D01*
X274878Y270500D01*
X274964Y270071D01*
X275207Y269707D01*
X287207Y257707D01*
X287207Y257707D01*
X287571Y257464D01*
X288000Y257379D01*
X290273D01*
X290372Y256878D01*
X289708Y256603D01*
X288966Y256034D01*
X288397Y255292D01*
X288039Y254427D01*
X287917Y253500D01*
X288039Y252573D01*
X288316Y251902D01*
X283707Y247293D01*
X283464Y246929D01*
X283378Y246500D01*
X283379Y246500D01*
Y226500D01*
X283378Y226500D01*
X283464Y226071D01*
X283707Y225707D01*
X287207Y222207D01*
X287207Y222207D01*
X287571Y221964D01*
X288000Y221878D01*
X288000Y221879D01*
X361500D01*
X361500Y221878D01*
X361929Y221964D01*
X362293Y222207D01*
X386793Y246707D01*
X386793Y246707D01*
X387036Y247071D01*
X387122Y247500D01*
Y260895D01*
X389605Y263379D01*
X390144D01*
Y261860D01*
X390144Y261735D01*
Y261360D01*
X390144Y261235D01*
Y256825D01*
X389207Y255888D01*
X388964Y255524D01*
X388878Y255095D01*
X388878Y255094D01*
Y246500D01*
X388878Y246500D01*
X388964Y246071D01*
X389207Y245707D01*
X390569Y244345D01*
X390569Y244345D01*
X390933Y244102D01*
X391362Y244016D01*
X391362Y244016D01*
X392033D01*
X392132Y243880D01*
X392238Y243563D01*
X392219Y243463D01*
X391972Y243094D01*
X391849Y242476D01*
X391972Y241858D01*
X392219Y241489D01*
X392238Y241389D01*
X392132Y241073D01*
X392033Y240936D01*
X386815D01*
X386386Y240851D01*
X386022Y240608D01*
X386022Y240608D01*
X376707Y231293D01*
X376464Y230929D01*
X376378Y230500D01*
X376378Y230500D01*
Y189344D01*
X372372D01*
Y179089D01*
X382628D01*
Y189344D01*
X378622D01*
Y230035D01*
X387280Y238693D01*
X392033D01*
X392132Y238557D01*
X392238Y238241D01*
X392219Y238141D01*
X391972Y237772D01*
X391849Y237154D01*
X391972Y236535D01*
X392219Y236166D01*
X392286Y235823D01*
X392219Y235479D01*
X391972Y235110D01*
X391849Y234492D01*
X391972Y233874D01*
X392274Y233422D01*
X392034Y233261D01*
X391595Y232605D01*
X391541Y232331D01*
X395728D01*
X399916D01*
X399861Y232605D01*
X399423Y233261D01*
X399182Y233422D01*
X399484Y233874D01*
X399607Y234492D01*
X399484Y235110D01*
X399305Y235379D01*
X399572Y235878D01*
X403560D01*
X403687Y235687D01*
X404290Y235285D01*
X405000Y235144D01*
X405710Y235285D01*
X406313Y235687D01*
X406715Y236290D01*
X406856Y237000D01*
X406715Y237710D01*
X406392Y238193D01*
X406574Y238693D01*
X410502D01*
X411878Y237317D01*
Y231000D01*
X411878Y231000D01*
X411964Y230571D01*
X412207Y230207D01*
X416699Y225715D01*
X416699Y225715D01*
X417063Y225472D01*
X417492Y225386D01*
X417492Y225386D01*
X420576D01*
X420675Y225250D01*
X420782Y224933D01*
X420762Y224834D01*
X420515Y224465D01*
X420393Y223847D01*
X420515Y223228D01*
X420818Y222776D01*
X420577Y222616D01*
X420139Y221959D01*
X420084Y221685D01*
X424272D01*
X428459D01*
X428405Y221959D01*
X427966Y222616D01*
X427726Y222776D01*
X428028Y223228D01*
X428151Y223847D01*
X428099Y224108D01*
X428559Y224354D01*
X439378Y213535D01*
Y206000D01*
X439378Y206000D01*
X439464Y205571D01*
X439707Y205207D01*
X446152Y198762D01*
X446152Y198762D01*
X446516Y198519D01*
X446945Y198434D01*
X446945Y198434D01*
X449758D01*
Y197184D01*
X457848D01*
Y197878D01*
X459535D01*
X459878Y197535D01*
Y187000D01*
X459878Y187000D01*
X459964Y186571D01*
X460207Y186207D01*
X462612Y183801D01*
X462612Y183801D01*
X462976Y183558D01*
X463406Y183473D01*
X466811D01*
Y181829D01*
X473523D01*
Y183473D01*
X476644D01*
Y181829D01*
X483356D01*
Y187335D01*
X483756D01*
Y190000D01*
X476244D01*
Y187335D01*
X476644D01*
Y185716D01*
X473523D01*
Y187335D01*
X473923D01*
Y190000D01*
X466411D01*
Y187335D01*
X466811D01*
Y185716D01*
X463870D01*
X462122Y187465D01*
Y198000D01*
X462036Y198429D01*
X461793Y198793D01*
X461793Y198793D01*
X460793Y199793D01*
X460429Y200036D01*
X460000Y200122D01*
X460000Y200122D01*
X457848D01*
Y201927D01*
X449758D01*
Y200677D01*
X447409D01*
X441622Y206465D01*
Y214000D01*
X441622Y214000D01*
X441536Y214429D01*
X441293Y214793D01*
X431176Y224910D01*
X431341Y225452D01*
X431437Y225472D01*
X431801Y225715D01*
X432775Y226689D01*
X433000Y226644D01*
X433710Y226785D01*
X434312Y227187D01*
X434715Y227790D01*
X434856Y228500D01*
X434715Y229210D01*
X434312Y229813D01*
X433710Y230215D01*
X433788Y230709D01*
X436205D01*
X457018Y209896D01*
X457018Y209896D01*
X457382Y209653D01*
X457811Y209567D01*
X457811Y209567D01*
X469282D01*
Y207136D01*
X480718D01*
Y214242D01*
X469282D01*
Y211810D01*
X458276D01*
X437462Y232624D01*
X437099Y232867D01*
X437080Y232871D01*
X437129Y233371D01*
X439543D01*
X457707Y215207D01*
X457707Y215207D01*
X458071Y214964D01*
X458500Y214878D01*
X458500Y214879D01*
X485025D01*
X485362Y214436D01*
X485282Y214242D01*
X485282D01*
Y207136D01*
X496718D01*
Y214242D01*
X489033D01*
X486482Y216793D01*
X486118Y217036D01*
X485689Y217122D01*
X485689Y217122D01*
X458965D01*
X440801Y235285D01*
X440661Y235379D01*
X440813Y235878D01*
X464060D01*
X464187Y235687D01*
X464790Y235285D01*
X465500Y235144D01*
X466210Y235285D01*
X466813Y235687D01*
X467215Y236290D01*
X467356Y237000D01*
X467215Y237710D01*
X466813Y238313D01*
X466210Y238715D01*
X465500Y238856D01*
X464790Y238715D01*
X464187Y238313D01*
X464060Y238122D01*
X436965D01*
X434122Y240965D01*
Y251000D01*
X434036Y251429D01*
X433793Y251793D01*
X433793Y251793D01*
X420293Y265293D01*
X419929Y265536D01*
X419500Y265622D01*
X419500Y265621D01*
X396856D01*
Y267265D01*
X394621D01*
Y277591D01*
X397647Y280616D01*
X398035Y280298D01*
X398033Y280294D01*
X397902Y279638D01*
Y275898D01*
X398033Y275241D01*
X398405Y274685D01*
X398497Y274623D01*
Y272019D01*
X398187Y271813D01*
X397785Y271210D01*
X397644Y270500D01*
X397785Y269790D01*
X398187Y269187D01*
X398790Y268785D01*
X399500Y268644D01*
X400210Y268785D01*
X400812Y269187D01*
X401215Y269790D01*
X401356Y270500D01*
X401275Y270907D01*
X401554Y271097D01*
X401736Y271155D01*
X402290Y270785D01*
X403000Y270644D01*
X403710Y270785D01*
X403732Y270800D01*
X404148Y270522D01*
X404144Y270500D01*
X404285Y269790D01*
X404688Y269187D01*
X405290Y268785D01*
X406000Y268644D01*
X406710Y268785D01*
X407312Y269187D01*
X407715Y269790D01*
X407856Y270500D01*
X407715Y271210D01*
X407312Y271813D01*
X407039Y271995D01*
Y274623D01*
X407130Y274685D01*
X407242Y274852D01*
X407742D01*
X407854Y274685D01*
X408410Y274313D01*
X409067Y274182D01*
X409724Y274313D01*
X410280Y274685D01*
X410392Y274852D01*
X410892D01*
X411003Y274685D01*
X411560Y274313D01*
X412217Y274182D01*
X412873Y274313D01*
X413430Y274685D01*
X413541Y274852D01*
X414041D01*
X414153Y274685D01*
X414710Y274313D01*
X415366Y274182D01*
X416023Y274313D01*
X416579Y274685D01*
X417133Y274704D01*
X417394Y274436D01*
Y273984D01*
X417394Y273984D01*
X417480Y273555D01*
X417723Y273191D01*
X435707Y255207D01*
X435707Y255207D01*
X436071Y254964D01*
X436500Y254878D01*
X441119D01*
X441397Y254208D01*
X441966Y253466D01*
X442708Y252897D01*
X443573Y252539D01*
X444500Y252417D01*
X445428Y252539D01*
X446292Y252897D01*
X447034Y253466D01*
X447378Y253915D01*
X447878Y253746D01*
Y251500D01*
X447878Y251500D01*
X447964Y251071D01*
X448207Y250707D01*
X450947Y247967D01*
Y242447D01*
X457271D01*
X457462Y241985D01*
X457098Y241621D01*
X448965D01*
X447071Y243515D01*
X447603Y244208D01*
X447961Y245073D01*
X448083Y246000D01*
X447961Y246927D01*
X447603Y247792D01*
X447034Y248534D01*
X446292Y249103D01*
X445428Y249461D01*
X444500Y249583D01*
X443573Y249461D01*
X442708Y249103D01*
X441966Y248534D01*
X441397Y247792D01*
X441039Y246927D01*
X440917Y246000D01*
X441039Y245073D01*
X441397Y244208D01*
X441966Y243466D01*
X442708Y242897D01*
X443573Y242539D01*
X444500Y242417D01*
X444939Y242474D01*
X447707Y239707D01*
X447707Y239707D01*
X448071Y239464D01*
X448500Y239378D01*
X457563D01*
X457563Y239378D01*
X457992Y239464D01*
X458356Y239707D01*
X466485Y247836D01*
X466947Y247645D01*
Y242207D01*
X469378D01*
Y227000D01*
X469378Y227000D01*
X469464Y226571D01*
X469476Y226553D01*
X469282Y226053D01*
X469282D01*
Y218947D01*
X480718D01*
Y226053D01*
X473033D01*
X471622Y227465D01*
Y242207D01*
X474053D01*
Y248919D01*
X468221D01*
X468030Y249381D01*
X468730Y250081D01*
X474053D01*
Y252315D01*
X481781D01*
Y250081D01*
X488886D01*
Y255800D01*
X492661Y259575D01*
X493188Y259687D01*
X493790Y259285D01*
X494500Y259144D01*
X495210Y259285D01*
X495813Y259687D01*
X496215Y260290D01*
X496356Y261000D01*
X496215Y261710D01*
X496103Y261878D01*
X496370Y262379D01*
X498535D01*
X499045Y261869D01*
Y256793D01*
X496614D01*
Y250081D01*
X503719D01*
Y256793D01*
X501288D01*
Y262333D01*
X501288Y262333D01*
X501203Y262762D01*
X500960Y263126D01*
X500960Y263126D01*
X499793Y264293D01*
X499665Y264378D01*
X499817Y264879D01*
X501035D01*
X506378Y259535D01*
Y240500D01*
X506378Y240500D01*
X506464Y240071D01*
X506707Y239707D01*
X508207Y238207D01*
X508571Y237964D01*
X509000Y237878D01*
X509000Y237878D01*
X521000D01*
X521000Y237878D01*
X521429Y237964D01*
X521793Y238207D01*
X522793Y239207D01*
X522793Y239207D01*
X523036Y239571D01*
X523122Y240000D01*
Y251035D01*
X525465Y253379D01*
X528119D01*
X528397Y252708D01*
X528966Y251966D01*
X529708Y251397D01*
X530573Y251039D01*
X531500Y250917D01*
X532428Y251039D01*
X533292Y251397D01*
X534034Y251966D01*
X534603Y252708D01*
X534961Y253573D01*
X535083Y254500D01*
X534961Y255427D01*
X534603Y256292D01*
X534034Y257034D01*
X533292Y257603D01*
X532428Y257961D01*
X531500Y258083D01*
X530573Y257961D01*
X529708Y257603D01*
X528966Y257034D01*
X528397Y256292D01*
X528119Y255622D01*
X525000D01*
X525000Y255622D01*
X524894Y255600D01*
X524647Y256061D01*
X529902Y261316D01*
X530573Y261039D01*
X531500Y260917D01*
X532428Y261039D01*
X533292Y261397D01*
X534034Y261966D01*
X534603Y262708D01*
X534961Y263573D01*
X535083Y264500D01*
X534961Y265427D01*
X534603Y266292D01*
X534034Y267034D01*
X533292Y267603D01*
X532428Y267961D01*
X531500Y268083D01*
X530573Y267961D01*
X529708Y267603D01*
X528966Y267034D01*
X528397Y266292D01*
X528039Y265427D01*
X527917Y264500D01*
X528039Y263573D01*
X528316Y262902D01*
X519972Y254559D01*
X518553D01*
Y256793D01*
X516122D01*
Y258500D01*
X516122Y258500D01*
X516036Y258929D01*
X515793Y259293D01*
X515793Y259293D01*
X513793Y261293D01*
X513429Y261536D01*
X513000Y261622D01*
X513000Y261621D01*
X512440D01*
X512313Y261812D01*
X511710Y262215D01*
X511000Y262356D01*
X510290Y262215D01*
X509688Y261812D01*
X509285Y261210D01*
X509144Y260500D01*
X509285Y259790D01*
X509688Y259188D01*
X510290Y258785D01*
X511000Y258644D01*
X511710Y258785D01*
X512313Y259188D01*
X512839Y259075D01*
X513878Y258035D01*
Y256793D01*
X511447D01*
Y250081D01*
X518553D01*
Y252315D01*
X520437D01*
X520437Y252315D01*
X520649Y252358D01*
X520964Y251929D01*
X520878Y251500D01*
X520878Y251500D01*
Y240465D01*
X520535Y240122D01*
X509465D01*
X508622Y240965D01*
Y260000D01*
X508622Y260000D01*
X508536Y260429D01*
X508293Y260793D01*
X508293Y260793D01*
X502293Y266793D01*
X501929Y267036D01*
X501500Y267122D01*
X501500Y267122D01*
X457881D01*
X457603Y267792D01*
X457034Y268534D01*
X456292Y269103D01*
X455428Y269461D01*
X454500Y269583D01*
X453573Y269461D01*
X452708Y269103D01*
X451966Y268534D01*
X451397Y267792D01*
X451039Y266927D01*
X450917Y266000D01*
X451039Y265073D01*
X451397Y264208D01*
X451966Y263466D01*
X452708Y262897D01*
X453573Y262539D01*
X454500Y262417D01*
X455428Y262539D01*
X456292Y262897D01*
X457034Y263466D01*
X457603Y264208D01*
X457881Y264879D01*
X461183D01*
X461335Y264378D01*
X461207Y264293D01*
X461207Y264293D01*
X456098Y259184D01*
X455428Y259461D01*
X454500Y259583D01*
X453573Y259461D01*
X452708Y259103D01*
X451966Y258534D01*
X451397Y257792D01*
X451039Y256927D01*
X450917Y256000D01*
X451039Y255073D01*
X451397Y254208D01*
X451966Y253466D01*
X452708Y252897D01*
X453573Y252539D01*
X454500Y252417D01*
X455428Y252539D01*
X456292Y252897D01*
X457034Y253466D01*
X457603Y254208D01*
X457961Y255073D01*
X458083Y256000D01*
X457961Y256927D01*
X457684Y257598D01*
X462465Y262379D01*
X491683D01*
X491835Y261878D01*
X491707Y261793D01*
X491707Y261793D01*
X486707Y256793D01*
X481781D01*
Y254559D01*
X474053D01*
Y256793D01*
X466947D01*
Y251470D01*
X458515Y243038D01*
X458053Y243229D01*
Y249553D01*
X452533D01*
X450122Y251965D01*
Y258000D01*
X450122Y258000D01*
X450036Y258429D01*
X449793Y258793D01*
X446793Y261793D01*
X446482Y262001D01*
X446446Y262244D01*
X446470Y262538D01*
X446493Y262547D01*
X447319Y263181D01*
X447953Y264007D01*
X448351Y264968D01*
X448421Y265500D01*
X444500D01*
X440579D01*
X440649Y264968D01*
X441047Y264007D01*
X441681Y263181D01*
X442410Y262621D01*
X442329Y262215D01*
X442279Y262122D01*
X434965D01*
X422909Y274177D01*
X422879Y274685D01*
X423250Y275241D01*
X423381Y275898D01*
Y279638D01*
X423250Y280294D01*
X422879Y280851D01*
X422787Y280912D01*
Y284335D01*
X422702Y284764D01*
X422458Y285128D01*
X422458Y285128D01*
X422208Y285379D01*
X422415Y285878D01*
X423980D01*
X424291Y285413D01*
X424458Y285301D01*
Y284801D01*
X424291Y284689D01*
X423919Y284133D01*
X423788Y283476D01*
X423919Y282820D01*
X424291Y282263D01*
X424847Y281891D01*
X425504Y281761D01*
X429244D01*
X429901Y281891D01*
X430457Y282263D01*
X430518Y282355D01*
X432976D01*
X432976Y282355D01*
X433406Y282440D01*
X433769Y282683D01*
X434465Y283379D01*
X438560D01*
X438688Y283188D01*
X439290Y282785D01*
X440000Y282644D01*
X440710Y282785D01*
X441313Y283188D01*
X441715Y283790D01*
X441856Y284500D01*
X441715Y285210D01*
X441313Y285812D01*
X440710Y286215D01*
X440000Y286356D01*
X439290Y286215D01*
X438688Y285812D01*
X438560Y285622D01*
X437365D01*
X437214Y286122D01*
X437313Y286188D01*
X437715Y286790D01*
X437856Y287500D01*
X437717Y288199D01*
X437701Y288289D01*
X437987Y288699D01*
X514715D01*
X519707Y283707D01*
X520071Y283464D01*
X520500Y283378D01*
X520500Y283379D01*
X528119D01*
X528397Y282708D01*
X528966Y281966D01*
X529708Y281397D01*
X530573Y281039D01*
X531500Y280917D01*
X532428Y281039D01*
X533292Y281397D01*
X534034Y281966D01*
X534603Y282708D01*
X534961Y283573D01*
X535083Y284500D01*
X534961Y285427D01*
X534603Y286292D01*
X534034Y287034D01*
X533292Y287603D01*
X532428Y287961D01*
X531500Y288083D01*
X530573Y287961D01*
X529708Y287603D01*
X528966Y287034D01*
X528397Y286292D01*
X528119Y285622D01*
X520965D01*
X515973Y290614D01*
X515609Y290857D01*
X515179Y290942D01*
X515179Y290942D01*
X430488D01*
X430457Y290989D01*
X430438Y291542D01*
X430706Y291804D01*
X454925D01*
X454925Y291804D01*
X455354Y291889D01*
X455718Y292132D01*
X509960Y346374D01*
X509960Y346374D01*
X510203Y346738D01*
X510288Y347167D01*
Y359085D01*
X510788Y359292D01*
X516374Y353707D01*
X516374Y353707D01*
X516738Y353464D01*
X517167Y353378D01*
X517167Y353379D01*
X528119D01*
X528397Y352708D01*
X528966Y351966D01*
X529708Y351397D01*
X530573Y351039D01*
X531500Y350917D01*
X532428Y351039D01*
X533292Y351397D01*
X534034Y351966D01*
X534603Y352708D01*
X534961Y353573D01*
X535083Y354500D01*
X534961Y355427D01*
X534603Y356292D01*
X534034Y357034D01*
X533292Y357603D01*
X532428Y357961D01*
X531500Y358083D01*
X530573Y357961D01*
X529708Y357603D01*
X528966Y357034D01*
X528397Y356292D01*
X528119Y355622D01*
X517631D01*
X512523Y360730D01*
Y365240D01*
X512923D01*
Y367905D01*
D02*
G37*
G36*
X291500Y357083D02*
X290573Y356961D01*
X289708Y356603D01*
X288966Y356034D01*
X288397Y355292D01*
X288039Y354427D01*
X287917Y353500D01*
X288039Y352573D01*
X288397Y351708D01*
X288966Y350966D01*
X289708Y350397D01*
X290573Y350039D01*
X291500Y349917D01*
X292427Y350039D01*
X293292Y350397D01*
X294034Y350966D01*
X294603Y351708D01*
X294961Y352573D01*
X295083Y353500D01*
X294961Y354427D01*
X294603Y355292D01*
X294034Y356034D01*
X293292Y356603D01*
X292427Y356961D01*
X291500Y357083D01*
D02*
G37*
G36*
X531500Y348083D02*
X530573Y347961D01*
X529708Y347603D01*
X528966Y347034D01*
X528397Y346292D01*
X528039Y345427D01*
X527917Y344500D01*
X528039Y343573D01*
X528397Y342708D01*
X528966Y341966D01*
X529708Y341397D01*
X530573Y341039D01*
X531500Y340917D01*
X532428Y341039D01*
X533292Y341397D01*
X534034Y341966D01*
X534603Y342708D01*
X534961Y343573D01*
X535083Y344500D01*
X534961Y345427D01*
X534603Y346292D01*
X534034Y347034D01*
X533292Y347603D01*
X532428Y347961D01*
X531500Y348083D01*
D02*
G37*
G36*
X291500Y347083D02*
X290573Y346961D01*
X289708Y346603D01*
X288966Y346034D01*
X288397Y345292D01*
X288039Y344427D01*
X287917Y343500D01*
X288039Y342573D01*
X288397Y341708D01*
X288966Y340966D01*
X289708Y340397D01*
X290573Y340039D01*
X291500Y339917D01*
X292427Y340039D01*
X293292Y340397D01*
X294034Y340966D01*
X294603Y341708D01*
X294961Y342573D01*
X295083Y343500D01*
X294961Y344427D01*
X294603Y345292D01*
X294034Y346034D01*
X293292Y346603D01*
X292427Y346961D01*
X291500Y347083D01*
D02*
G37*
G36*
X531500Y338083D02*
X530573Y337961D01*
X529708Y337603D01*
X528966Y337034D01*
X528397Y336292D01*
X528039Y335427D01*
X527917Y334500D01*
X528039Y333573D01*
X528397Y332708D01*
X528966Y331966D01*
X529708Y331397D01*
X530573Y331039D01*
X531500Y330917D01*
X532428Y331039D01*
X533292Y331397D01*
X534034Y331966D01*
X534603Y332708D01*
X534961Y333573D01*
X535083Y334500D01*
X534961Y335427D01*
X534603Y336292D01*
X534034Y337034D01*
X533292Y337603D01*
X532428Y337961D01*
X531500Y338083D01*
D02*
G37*
G36*
X291500Y337083D02*
X290573Y336961D01*
X289708Y336603D01*
X288966Y336034D01*
X288397Y335292D01*
X288039Y334427D01*
X287917Y333500D01*
X288039Y332573D01*
X288397Y331708D01*
X288966Y330966D01*
X289708Y330397D01*
X290573Y330039D01*
X291500Y329917D01*
X292427Y330039D01*
X293292Y330397D01*
X294034Y330966D01*
X294603Y331708D01*
X294961Y332573D01*
X295083Y333500D01*
X294961Y334427D01*
X294603Y335292D01*
X294034Y336034D01*
X293292Y336603D01*
X292427Y336961D01*
X291500Y337083D01*
D02*
G37*
G36*
X531500Y328083D02*
X530573Y327961D01*
X529708Y327603D01*
X528966Y327034D01*
X528397Y326292D01*
X528039Y325427D01*
X527917Y324500D01*
X528039Y323573D01*
X528397Y322708D01*
X528966Y321966D01*
X529708Y321397D01*
X530573Y321039D01*
X531500Y320917D01*
X532428Y321039D01*
X533292Y321397D01*
X534034Y321966D01*
X534603Y322708D01*
X534961Y323573D01*
X535083Y324500D01*
X534961Y325427D01*
X534603Y326292D01*
X534034Y327034D01*
X533292Y327603D01*
X532428Y327961D01*
X531500Y328083D01*
D02*
G37*
G36*
X291500Y327083D02*
X290573Y326961D01*
X289708Y326603D01*
X288966Y326034D01*
X288397Y325292D01*
X288039Y324427D01*
X287917Y323500D01*
X288039Y322573D01*
X288397Y321708D01*
X288966Y320966D01*
X289708Y320397D01*
X290573Y320039D01*
X291500Y319917D01*
X292427Y320039D01*
X293292Y320397D01*
X294034Y320966D01*
X294603Y321708D01*
X294961Y322573D01*
X295083Y323500D01*
X294961Y324427D01*
X294603Y325292D01*
X294034Y326034D01*
X293292Y326603D01*
X292427Y326961D01*
X291500Y327083D01*
D02*
G37*
G36*
X531500Y318083D02*
X530573Y317961D01*
X529708Y317603D01*
X528966Y317034D01*
X528397Y316292D01*
X528039Y315427D01*
X527917Y314500D01*
X528039Y313573D01*
X528397Y312708D01*
X528966Y311966D01*
X529708Y311397D01*
X530573Y311039D01*
X531500Y310917D01*
X532428Y311039D01*
X533292Y311397D01*
X534034Y311966D01*
X534603Y312708D01*
X534961Y313573D01*
X535083Y314500D01*
X534961Y315427D01*
X534603Y316292D01*
X534034Y317034D01*
X533292Y317603D01*
X532428Y317961D01*
X531500Y318083D01*
D02*
G37*
G36*
Y308083D02*
X530573Y307961D01*
X529708Y307603D01*
X528966Y307034D01*
X528397Y306292D01*
X528039Y305427D01*
X527917Y304500D01*
X528039Y303573D01*
X528397Y302708D01*
X528966Y301966D01*
X529708Y301397D01*
X530573Y301039D01*
X531500Y300917D01*
X532428Y301039D01*
X533292Y301397D01*
X534034Y301966D01*
X534603Y302708D01*
X534961Y303573D01*
X535083Y304500D01*
X534961Y305427D01*
X534603Y306292D01*
X534034Y307034D01*
X533292Y307603D01*
X532428Y307961D01*
X531500Y308083D01*
D02*
G37*
G36*
Y298083D02*
X530573Y297961D01*
X529708Y297603D01*
X528966Y297034D01*
X528397Y296292D01*
X528039Y295427D01*
X527917Y294500D01*
X528039Y293573D01*
X528397Y292708D01*
X528966Y291966D01*
X529708Y291397D01*
X530573Y291039D01*
X531500Y290917D01*
X532428Y291039D01*
X533292Y291397D01*
X534034Y291966D01*
X534603Y292708D01*
X534961Y293573D01*
X535083Y294500D01*
X534961Y295427D01*
X534603Y296292D01*
X534034Y297034D01*
X533292Y297603D01*
X532428Y297961D01*
X531500Y298083D01*
D02*
G37*
G36*
Y278083D02*
X530573Y277961D01*
X529708Y277603D01*
X528966Y277034D01*
X528397Y276292D01*
X528039Y275427D01*
X527917Y274500D01*
X528039Y273573D01*
X528397Y272708D01*
X528966Y271966D01*
X529708Y271397D01*
X530573Y271039D01*
X531500Y270917D01*
X532428Y271039D01*
X533292Y271397D01*
X534034Y271966D01*
X534603Y272708D01*
X534961Y273573D01*
X535083Y274500D01*
X534961Y275427D01*
X534603Y276292D01*
X534034Y277034D01*
X533292Y277603D01*
X532428Y277961D01*
X531500Y278083D01*
D02*
G37*
G36*
X445000Y269921D02*
Y266500D01*
X448421D01*
X448351Y267032D01*
X447953Y267993D01*
X447319Y268819D01*
X446493Y269453D01*
X445532Y269851D01*
X445000Y269921D01*
D02*
G37*
G36*
X444000D02*
X443468Y269851D01*
X442507Y269453D01*
X441681Y268819D01*
X441047Y267993D01*
X440649Y267032D01*
X440579Y266500D01*
X444000D01*
Y269921D01*
D02*
G37*
G36*
X518953Y249319D02*
X515500D01*
Y246063D01*
X518953D01*
Y249319D01*
D02*
G37*
G36*
X514500D02*
X511047D01*
Y246063D01*
X514500D01*
Y249319D01*
D02*
G37*
G36*
X532000Y248421D02*
Y245000D01*
X535421D01*
X535351Y245532D01*
X534953Y246493D01*
X534319Y247319D01*
X533493Y247953D01*
X532532Y248351D01*
X532000Y248421D01*
D02*
G37*
G36*
X531000D02*
X530468Y248351D01*
X529507Y247953D01*
X528681Y247319D01*
X528047Y246493D01*
X527649Y245532D01*
X527579Y245000D01*
X531000D01*
Y248421D01*
D02*
G37*
G36*
X522356Y371171D02*
X515644D01*
Y365665D01*
X515244D01*
Y363000D01*
X519000D01*
X522756D01*
Y365665D01*
X522356D01*
Y367284D01*
X523130D01*
X526707Y363707D01*
X526707Y363707D01*
X527071Y363464D01*
X527500Y363378D01*
X527500Y363379D01*
X528119D01*
X528397Y362708D01*
X528966Y361966D01*
X529708Y361397D01*
X530573Y361039D01*
X531500Y360917D01*
X532428Y361039D01*
X533098Y361316D01*
X539378Y355035D01*
Y246465D01*
X535546Y242632D01*
X535122Y242915D01*
X535351Y243468D01*
X535421Y244000D01*
X531500D01*
X527579D01*
X527649Y243468D01*
X528047Y242507D01*
X528681Y241681D01*
X529410Y241122D01*
X529329Y240716D01*
X529279Y240621D01*
X529039D01*
X528610Y240536D01*
X528246Y240293D01*
X528246Y240293D01*
X525207Y237254D01*
X524964Y236890D01*
X524878Y236461D01*
X524878Y236461D01*
Y214465D01*
X490035Y179622D01*
X465465D01*
X457858Y187228D01*
X457906Y187490D01*
X458042Y187728D01*
X458248D01*
Y190000D01*
X453803D01*
X449358D01*
X449358Y187728D01*
X448903Y187622D01*
X444965D01*
X436122Y196465D01*
Y213500D01*
X436122Y213500D01*
X436036Y213929D01*
X435793Y214293D01*
X435793Y214293D01*
X430793Y219293D01*
X430429Y219536D01*
X430000Y219622D01*
X430000Y219621D01*
X428478D01*
X428211Y220122D01*
X428405Y220411D01*
X428459Y220685D01*
X424272D01*
X420084D01*
X420139Y220411D01*
X420577Y219755D01*
X420818Y219594D01*
X420515Y219142D01*
X420393Y218524D01*
X420515Y217905D01*
X420762Y217536D01*
X420782Y217437D01*
X420675Y217120D01*
X420576Y216984D01*
X418362D01*
X417933Y216898D01*
X417569Y216655D01*
X417569Y216655D01*
X407002Y206088D01*
X406759Y205724D01*
X406674Y205295D01*
X406674Y205295D01*
Y169541D01*
X406174Y169390D01*
X406128Y169458D01*
X406128Y169458D01*
X404793Y170793D01*
X404429Y171036D01*
X404000Y171122D01*
X404000Y171122D01*
X387500D01*
X387500Y171122D01*
X387071Y171036D01*
X386707Y170793D01*
X386707Y170793D01*
X383535Y167622D01*
X382628D01*
Y171628D01*
X373959D01*
X357371Y188215D01*
Y196782D01*
X359606D01*
Y202287D01*
X360006D01*
Y204953D01*
X356250D01*
X352494D01*
Y202287D01*
X352894D01*
Y200669D01*
X344356D01*
Y202287D01*
X344756D01*
Y204953D01*
X341000D01*
X337244D01*
Y202287D01*
X337644D01*
Y196782D01*
X344356D01*
Y198426D01*
X352894D01*
Y196782D01*
X355129D01*
Y187750D01*
X355128Y187750D01*
X355214Y187321D01*
X355457Y186957D01*
X372372Y170042D01*
Y161372D01*
X382628D01*
Y165378D01*
X384000D01*
X384000Y165378D01*
X384429Y165464D01*
X384793Y165707D01*
X387965Y168878D01*
X403535D01*
X404213Y168201D01*
Y167580D01*
X403947Y167191D01*
X403447Y167061D01*
X403403Y167119D01*
X402844Y167547D01*
X402194Y167817D01*
X401996Y167843D01*
Y164819D01*
Y161794D01*
X402194Y161820D01*
X402844Y162090D01*
X403403Y162518D01*
X403447Y162576D01*
X403947Y162407D01*
Y160676D01*
X406408D01*
Y160676D01*
X411329D01*
Y160676D01*
X413390D01*
Y160275D01*
X414677D01*
Y163933D01*
Y167590D01*
X413390D01*
Y167190D01*
X411643D01*
Y167191D01*
X411377D01*
Y204791D01*
X418665Y212079D01*
X420852D01*
X420866Y212059D01*
X421390Y211708D01*
X422008Y211585D01*
X426535D01*
X427154Y211708D01*
X427678Y212059D01*
X428028Y212583D01*
X428151Y213201D01*
X428028Y213819D01*
X427781Y214188D01*
X427714Y214531D01*
X427781Y214875D01*
X428028Y215244D01*
X428151Y215862D01*
X428028Y216480D01*
X427781Y216849D01*
X427771Y216902D01*
X427920Y217302D01*
X427983Y217378D01*
X429535D01*
X433878Y213035D01*
Y198201D01*
X433642Y197799D01*
X433378Y197799D01*
X429697D01*
Y191000D01*
X433642D01*
Y195153D01*
X434142Y195305D01*
X434207Y195207D01*
X443707Y185707D01*
X443707Y185707D01*
X444071Y185464D01*
X444500Y185378D01*
X444500Y185378D01*
X456535D01*
X457597Y184317D01*
X457390Y183817D01*
X449758D01*
Y179073D01*
X454589D01*
X459955Y173707D01*
X459955Y173707D01*
X460319Y173464D01*
X460748Y173378D01*
X493000D01*
X493000Y173378D01*
X493429Y173464D01*
X493793Y173707D01*
X532293Y212207D01*
X532293Y212207D01*
X532536Y212571D01*
X532622Y213000D01*
Y230947D01*
X535053D01*
Y238053D01*
X534714D01*
X534562Y238553D01*
X534793Y238707D01*
X541293Y245207D01*
X541293Y245207D01*
X541536Y245571D01*
X541622Y246000D01*
X541622Y246000D01*
Y355500D01*
X541536Y355929D01*
X541293Y356293D01*
X541293Y356293D01*
X534684Y362902D01*
X534961Y363573D01*
X535083Y364500D01*
X534961Y365427D01*
X534603Y366292D01*
X534034Y367034D01*
X533292Y367603D01*
X532428Y367961D01*
X531500Y368083D01*
X530573Y367961D01*
X529708Y367603D01*
X528966Y367034D01*
X528397Y366292D01*
X528281Y366012D01*
X527691Y365895D01*
X524388Y369199D01*
X524024Y369442D01*
X523595Y369527D01*
X523594Y369527D01*
X522356D01*
Y371171D01*
D02*
G37*
G36*
X518953Y245063D02*
X515500D01*
Y241807D01*
X518953D01*
Y245063D01*
D02*
G37*
G36*
X514500D02*
X511047D01*
Y241807D01*
X514500D01*
Y245063D01*
D02*
G37*
G36*
X409500Y234665D02*
Y233000D01*
X411165D01*
X411092Y233366D01*
X410601Y234101D01*
X409866Y234592D01*
X409500Y234665D01*
D02*
G37*
G36*
X408500D02*
X408134Y234592D01*
X407399Y234101D01*
X406908Y233366D01*
X406836Y233000D01*
X408500D01*
Y234665D01*
D02*
G37*
G36*
X411165Y232000D02*
X409500D01*
Y230335D01*
X409866Y230408D01*
X410601Y230899D01*
X411092Y231634D01*
X411165Y232000D01*
D02*
G37*
G36*
X408500D02*
X406836D01*
X406908Y231634D01*
X407399Y230899D01*
X408134Y230408D01*
X408500Y230335D01*
Y232000D01*
D02*
G37*
G36*
X503719Y248919D02*
X496614D01*
Y242207D01*
X499045D01*
Y229333D01*
X499045Y229333D01*
X499130Y228904D01*
X499374Y228540D01*
X501451Y226462D01*
X501282Y226053D01*
X501282D01*
Y218947D01*
X512718D01*
Y226053D01*
X505033D01*
X501288Y229798D01*
Y242207D01*
X503719D01*
Y248919D01*
D02*
G37*
G36*
X488886D02*
X481781D01*
Y242207D01*
X484212D01*
Y228167D01*
X484212Y228167D01*
X484297Y227737D01*
X484540Y227374D01*
X485452Y226462D01*
X485282Y226053D01*
X485282D01*
Y218947D01*
X496718D01*
Y226053D01*
X489033D01*
X486455Y228631D01*
Y242207D01*
X488886D01*
Y248919D01*
D02*
G37*
G36*
X399916Y231331D02*
X395728D01*
X391541D01*
X391595Y231056D01*
X392034Y230400D01*
X392274Y230240D01*
X391972Y229787D01*
X391849Y229169D01*
X391972Y228551D01*
X392219Y228182D01*
X392286Y227839D01*
X392219Y227495D01*
X391972Y227126D01*
X391849Y226508D01*
X391972Y225890D01*
X392219Y225521D01*
X392286Y225177D01*
X392219Y224834D01*
X391972Y224465D01*
X391849Y223847D01*
X391972Y223228D01*
X392219Y222859D01*
X392286Y222516D01*
X392219Y222172D01*
X391972Y221803D01*
X391849Y221185D01*
X391972Y220567D01*
X392219Y220198D01*
X392286Y219854D01*
X392219Y219511D01*
X391972Y219142D01*
X391849Y218524D01*
X391972Y217905D01*
X392219Y217536D01*
X392286Y217193D01*
X392219Y216849D01*
X391972Y216480D01*
X391849Y215862D01*
X391972Y215244D01*
X392219Y214875D01*
X392286Y214531D01*
X392219Y214188D01*
X391972Y213819D01*
X391849Y213201D01*
X391972Y212583D01*
X392322Y212059D01*
X392846Y211708D01*
X393465Y211585D01*
X397992D01*
X398610Y211708D01*
X399134Y212059D01*
X399484Y212583D01*
X399607Y213201D01*
X399484Y213819D01*
X399238Y214188D01*
X399171Y214531D01*
X399238Y214875D01*
X399484Y215244D01*
X399607Y215862D01*
X399484Y216480D01*
X399238Y216849D01*
X399171Y217193D01*
X399238Y217536D01*
X399484Y217905D01*
X399607Y218524D01*
X399484Y219142D01*
X399238Y219511D01*
X399171Y219854D01*
X399238Y220198D01*
X399484Y220567D01*
X399607Y221185D01*
X399484Y221803D01*
X399238Y222172D01*
X399171Y222516D01*
X399238Y222859D01*
X399484Y223228D01*
X399607Y223847D01*
X399484Y224465D01*
X399238Y224834D01*
X399171Y225177D01*
X399238Y225521D01*
X399484Y225890D01*
X399607Y226508D01*
X399484Y227126D01*
X399238Y227495D01*
X399171Y227839D01*
X399238Y228182D01*
X399484Y228551D01*
X399607Y229169D01*
X399484Y229787D01*
X399182Y230240D01*
X399423Y230400D01*
X399861Y231056D01*
X399916Y231331D01*
D02*
G37*
G36*
X513118Y214642D02*
X507500D01*
Y211189D01*
X513118D01*
Y214642D01*
D02*
G37*
G36*
X506500D02*
X500882D01*
Y211189D01*
X506500D01*
Y214642D01*
D02*
G37*
G36*
X513118Y210189D02*
X507500D01*
Y206736D01*
X513118D01*
Y210189D01*
D02*
G37*
G36*
X506500D02*
X500882D01*
Y206736D01*
X506500D01*
Y210189D01*
D02*
G37*
G36*
X344756Y208618D02*
X341500D01*
Y205953D01*
X344756D01*
Y208618D01*
D02*
G37*
G36*
X360006D02*
X356750D01*
Y205953D01*
X360006D01*
Y208618D01*
D02*
G37*
G36*
X355750D02*
X352494D01*
Y205953D01*
X355750D01*
Y208618D01*
D02*
G37*
G36*
X340500D02*
X337244D01*
Y205953D01*
X340500D01*
Y208618D01*
D02*
G37*
G36*
X458248Y193272D02*
X454303D01*
Y191000D01*
X458248D01*
Y193272D01*
D02*
G37*
G36*
X453303D02*
X449358D01*
Y191000D01*
X453303D01*
Y193272D01*
D02*
G37*
G36*
X483756Y193665D02*
X480500D01*
Y191000D01*
X483756D01*
Y193665D01*
D02*
G37*
G36*
X479500D02*
X476244D01*
Y191000D01*
X479500D01*
Y193665D01*
D02*
G37*
G36*
X473923D02*
X470667D01*
Y191000D01*
X473923D01*
Y193665D01*
D02*
G37*
G36*
X469667D02*
X466411D01*
Y191000D01*
X469667D01*
Y193665D01*
D02*
G37*
G36*
X428697Y197799D02*
X424752D01*
Y191000D01*
X428697D01*
Y197799D01*
D02*
G37*
G36*
X433642Y190000D02*
X429697D01*
Y183201D01*
X433642D01*
Y190000D01*
D02*
G37*
G36*
X428697D02*
X424752D01*
Y183201D01*
X428697D01*
Y190000D01*
D02*
G37*
G36*
X418516Y167745D02*
X418318Y167718D01*
X417668Y167449D01*
X417465Y167293D01*
X416965Y167540D01*
Y167590D01*
X415677D01*
Y163933D01*
Y160275D01*
X416965D01*
Y161901D01*
X417465Y162147D01*
X417668Y161992D01*
X418318Y161722D01*
X418516Y161696D01*
Y164720D01*
Y167745D01*
D02*
G37*
G36*
X400996Y167843D02*
X400798Y167817D01*
X400148Y167547D01*
X399589Y167119D01*
X399161Y166560D01*
X398892Y165910D01*
X398814Y165319D01*
X400996D01*
Y167843D01*
D02*
G37*
G36*
X419516Y167745D02*
Y165220D01*
X421698D01*
X421620Y165812D01*
X421351Y166462D01*
X420922Y167021D01*
X420364Y167449D01*
X419714Y167718D01*
X419516Y167745D01*
D02*
G37*
G36*
X400996Y164319D02*
X398814D01*
X398892Y163727D01*
X399161Y163077D01*
X399589Y162518D01*
X400148Y162090D01*
X400798Y161820D01*
X400996Y161794D01*
Y164319D01*
D02*
G37*
G36*
X421698Y164220D02*
X419516D01*
Y161696D01*
X419714Y161722D01*
X420364Y161992D01*
X420922Y162420D01*
X421351Y162978D01*
X421620Y163629D01*
X421698Y164220D01*
D02*
G37*
G36*
X427194Y157409D02*
Y154000D01*
X429291D01*
Y154878D01*
X429203Y155550D01*
X428943Y156176D01*
X428530Y156714D01*
X427992Y157127D01*
X427366Y157387D01*
X427194Y157409D01*
D02*
G37*
G36*
X426194D02*
X426022Y157387D01*
X425395Y157127D01*
X424858Y156714D01*
X424445Y156176D01*
X424185Y155550D01*
X424097Y154878D01*
Y154000D01*
X426194D01*
Y157409D01*
D02*
G37*
G36*
X394318D02*
Y154000D01*
X396415D01*
Y154878D01*
X396327Y155550D01*
X396067Y156176D01*
X395655Y156714D01*
X395117Y157127D01*
X394491Y157387D01*
X394318Y157409D01*
D02*
G37*
G36*
X393318D02*
X393146Y157387D01*
X392520Y157127D01*
X391982Y156714D01*
X391569Y156176D01*
X391310Y155550D01*
X391221Y154878D01*
Y154000D01*
X393318D01*
Y157409D01*
D02*
G37*
G36*
X429291Y153000D02*
X427194D01*
Y149591D01*
X427366Y149613D01*
X427992Y149873D01*
X428530Y150286D01*
X428943Y150823D01*
X429203Y151450D01*
X429291Y152122D01*
Y153000D01*
D02*
G37*
G36*
X426194D02*
X424097D01*
Y152122D01*
X424185Y151450D01*
X424445Y150823D01*
X424858Y150286D01*
X425395Y149873D01*
X426022Y149613D01*
X426194Y149591D01*
Y153000D01*
D02*
G37*
G36*
X396415D02*
X394318D01*
Y149591D01*
X394491Y149613D01*
X395117Y149873D01*
X395655Y150286D01*
X396067Y150823D01*
X396327Y151450D01*
X396415Y152122D01*
Y153000D01*
D02*
G37*
G36*
X393318D02*
X391221D01*
Y152122D01*
X391310Y151450D01*
X391569Y150823D01*
X391982Y150286D01*
X392520Y149873D01*
X393146Y149613D01*
X393318Y149591D01*
Y153000D01*
D02*
G37*
%LPD*%
G36*
X503184Y342770D02*
X454461Y294047D01*
X430858D01*
X430706Y294547D01*
X430746Y294573D01*
X431206Y295262D01*
X431268Y295575D01*
X427374D01*
X423480D01*
X423542Y295262D01*
X424002Y294573D01*
X424291Y294381D01*
Y294138D01*
X423919Y293582D01*
X423788Y292925D01*
X423919Y292269D01*
X424291Y291712D01*
X424458Y291600D01*
Y291100D01*
X424291Y290989D01*
X423919Y290432D01*
X423788Y289776D01*
X423919Y289119D01*
X424251Y288621D01*
X424184Y288366D01*
X424051Y288122D01*
X422465D01*
X420293Y290293D01*
X419929Y290536D01*
X419500Y290622D01*
X419500Y290621D01*
X409940D01*
X409812Y290812D01*
X409210Y291215D01*
X409042Y291248D01*
X408877Y291791D01*
X409860Y292774D01*
X409860Y292774D01*
X410103Y293138D01*
X410188Y293567D01*
Y308088D01*
X410280Y308149D01*
X410392Y308316D01*
X410892D01*
X411003Y308149D01*
X411560Y307777D01*
X412217Y307647D01*
X412873Y307777D01*
X413430Y308149D01*
X413541Y308316D01*
X414041D01*
X414153Y308149D01*
X414710Y307777D01*
X415366Y307647D01*
X416023Y307777D01*
X416579Y308149D01*
X416691Y308316D01*
X417191D01*
X417303Y308149D01*
X417859Y307777D01*
X418516Y307647D01*
X419172Y307777D01*
X419729Y308149D01*
X419840Y308316D01*
X420340D01*
X420452Y308149D01*
X421009Y307777D01*
X421665Y307647D01*
X422322Y307777D01*
X422879Y308149D01*
X423250Y308706D01*
X423381Y309362D01*
Y310111D01*
X460116D01*
X460116Y310111D01*
X460545Y310196D01*
X460909Y310439D01*
X465393Y314923D01*
X465393Y314923D01*
X465636Y315287D01*
X465702Y315615D01*
X473539Y323453D01*
X473790Y323285D01*
X474375Y323169D01*
X474608Y322694D01*
X458559Y306645D01*
X430518D01*
X430457Y306737D01*
X429901Y307109D01*
X429244Y307239D01*
X425504D01*
X424847Y307109D01*
X424291Y306737D01*
X423919Y306180D01*
X423788Y305524D01*
X423919Y304867D01*
X424291Y304310D01*
X424458Y304199D01*
Y303699D01*
X424291Y303587D01*
X423919Y303031D01*
X423788Y302374D01*
X423919Y301717D01*
X424291Y301161D01*
X424458Y301049D01*
Y300549D01*
X424291Y300438D01*
X423919Y299881D01*
X423788Y299224D01*
X423919Y298568D01*
X424291Y298011D01*
Y297769D01*
X424002Y297576D01*
X423542Y296887D01*
X423480Y296575D01*
X427374D01*
X431268D01*
X431206Y296887D01*
X430746Y297576D01*
X430706Y297603D01*
X430858Y298103D01*
X448811D01*
X450701Y296213D01*
X450785Y295790D01*
X451188Y295187D01*
X451790Y294785D01*
X452500Y294644D01*
X453210Y294785D01*
X453813Y295187D01*
X454215Y295790D01*
X454356Y296500D01*
X454215Y297210D01*
X453813Y297813D01*
X453210Y298215D01*
X452500Y298356D01*
X451858Y298228D01*
X450069Y300017D01*
X449705Y300261D01*
X449276Y300346D01*
X449275Y300346D01*
X430518D01*
X430457Y300437D01*
X430438Y300991D01*
X430706Y301253D01*
X459874D01*
X459874Y301252D01*
X460303Y301338D01*
X460667Y301581D01*
X502275Y343189D01*
X502500Y343144D01*
X502938Y343231D01*
X503184Y342770D01*
D02*
G37*
G36*
X349792Y316378D02*
X342535Y309121D01*
X290000D01*
X289571Y309036D01*
X289207Y308793D01*
X289207Y308793D01*
X278707Y298293D01*
X278464Y297929D01*
X278378Y297500D01*
X278379Y297500D01*
Y279000D01*
X278378Y279000D01*
X278464Y278571D01*
X278707Y278207D01*
X288707Y268207D01*
X288707Y268207D01*
X289071Y267964D01*
X289500Y267878D01*
X289500Y267879D01*
X290644D01*
X290676Y267378D01*
X290468Y267351D01*
X289507Y266953D01*
X288681Y266319D01*
X288047Y265493D01*
X287649Y264532D01*
X287579Y264000D01*
X291500D01*
Y263000D01*
X287579D01*
X287649Y262468D01*
X288047Y261507D01*
X288681Y260681D01*
X289410Y260121D01*
X289329Y259716D01*
X289279Y259622D01*
X288465D01*
X277121Y270965D01*
Y304535D01*
X287840Y315254D01*
X288264Y314970D01*
X288039Y314427D01*
X287917Y313500D01*
X288039Y312573D01*
X288397Y311708D01*
X288966Y310966D01*
X289708Y310397D01*
X290573Y310039D01*
X291500Y309917D01*
X292427Y310039D01*
X293292Y310397D01*
X294034Y310966D01*
X294603Y311708D01*
X294961Y312573D01*
X295083Y313500D01*
X294961Y314427D01*
X294603Y315292D01*
X294034Y316034D01*
X293585Y316378D01*
X293755Y316879D01*
X349585D01*
X349792Y316378D01*
D02*
G37*
G36*
X390177Y302148D02*
X390177Y302148D01*
X390398Y302000D01*
X390454Y301717D01*
X390826Y301161D01*
Y300919D01*
X390538Y300726D01*
X390077Y300037D01*
X390015Y299724D01*
X393909D01*
X397803D01*
X397741Y300037D01*
X397281Y300726D01*
X396993Y300919D01*
Y301161D01*
X397365Y301717D01*
X397495Y302374D01*
X397365Y303031D01*
X396993Y303587D01*
X396826Y303699D01*
Y304199D01*
X396993Y304310D01*
X397365Y304867D01*
X397495Y305524D01*
X397365Y306180D01*
X396993Y306737D01*
X396436Y307109D01*
X395779Y307239D01*
X392039D01*
X391383Y307109D01*
X391140Y306946D01*
X388437Y309649D01*
X388629Y310111D01*
X397902D01*
Y309362D01*
X398033Y308706D01*
X398405Y308149D01*
X398961Y307777D01*
X399618Y307647D01*
X400275Y307777D01*
X400831Y308149D01*
X400943Y308316D01*
X401443D01*
X401555Y308149D01*
X402111Y307777D01*
X402768Y307647D01*
X403424Y307777D01*
X403981Y308149D01*
X404534Y308169D01*
X404796Y307900D01*
Y302366D01*
X404630Y302255D01*
X404227Y301652D01*
X404086Y300942D01*
X404227Y300232D01*
X404630Y299629D01*
X405232Y299227D01*
X405942Y299086D01*
X406652Y299227D01*
X407255Y299629D01*
X407445Y299915D01*
X407945Y299763D01*
Y294032D01*
X403306Y289392D01*
X402831Y289625D01*
X402715Y290210D01*
X402313Y290812D01*
X401710Y291215D01*
X401000Y291356D01*
X400290Y291215D01*
X399688Y290812D01*
X399560Y290621D01*
X397238D01*
X396993Y290989D01*
Y291231D01*
X397281Y291424D01*
X397741Y292113D01*
X397803Y292425D01*
X393910D01*
Y293425D01*
X397803D01*
X397741Y293738D01*
X397281Y294427D01*
X396993Y294619D01*
Y294862D01*
X397365Y295418D01*
X397495Y296075D01*
X397365Y296731D01*
X396993Y297288D01*
Y297530D01*
X397281Y297723D01*
X397741Y298412D01*
X397803Y298724D01*
X393909D01*
X390015D01*
X390077Y298412D01*
X390538Y297723D01*
X390578Y297696D01*
X390426Y297196D01*
X388575D01*
X388146Y297111D01*
X387782Y296868D01*
X387782Y296868D01*
X386207Y295293D01*
X385964Y294929D01*
X385878Y294500D01*
X385878Y294500D01*
Y292000D01*
X385878Y292000D01*
X385964Y291571D01*
X386207Y291207D01*
X387864Y289549D01*
X388228Y289306D01*
X388657Y289221D01*
X388657Y289221D01*
X390434D01*
X390454Y289119D01*
X390826Y288562D01*
X390846Y288009D01*
X390578Y287748D01*
X387524D01*
X379234Y296037D01*
Y310809D01*
X369766D01*
Y304574D01*
X362856D01*
Y306218D01*
X356144D01*
Y300713D01*
X355744D01*
Y298047D01*
X359500D01*
X363256D01*
Y300713D01*
X362856D01*
Y302331D01*
X369766D01*
Y287561D01*
X379234D01*
Y292212D01*
X379696Y292403D01*
X386266Y285833D01*
X386266Y285833D01*
X386630Y285590D01*
X387059Y285504D01*
X390765D01*
X390826Y285413D01*
X390846Y284859D01*
X390578Y284598D01*
X387024D01*
X387024Y284598D01*
X386594Y284513D01*
X386231Y284269D01*
X386230Y284269D01*
X375368Y273407D01*
X369766D01*
Y267621D01*
X362856D01*
Y269265D01*
X356144D01*
Y263760D01*
X355744D01*
Y261094D01*
X359500D01*
X363256D01*
Y263760D01*
X362856D01*
Y265378D01*
X369319D01*
X369766Y264931D01*
Y250160D01*
X379234D01*
Y273407D01*
X379194D01*
X379002Y273869D01*
X387488Y282355D01*
X390765D01*
X390826Y282263D01*
X391383Y281891D01*
X392039Y281761D01*
X394966D01*
X395157Y281299D01*
X392707Y278849D01*
X392464Y278485D01*
X392378Y278056D01*
X392378Y278056D01*
Y267265D01*
X390144D01*
Y265621D01*
X389140D01*
X388711Y265536D01*
X388347Y265293D01*
X388347Y265293D01*
X385207Y262153D01*
X384964Y261789D01*
X384878Y261360D01*
X384878Y261360D01*
Y247965D01*
X361035Y224121D01*
X288465D01*
X285622Y226965D01*
Y246035D01*
X289902Y250316D01*
X290573Y250039D01*
X291500Y249917D01*
X292427Y250039D01*
X293292Y250397D01*
X294034Y250966D01*
X294603Y251708D01*
X294961Y252573D01*
X295083Y253500D01*
X294961Y254427D01*
X294736Y254970D01*
X295160Y255254D01*
X296879Y253535D01*
Y250465D01*
X293098Y246684D01*
X292427Y246961D01*
X291500Y247083D01*
X290573Y246961D01*
X289708Y246603D01*
X288966Y246034D01*
X288397Y245292D01*
X288039Y244427D01*
X287917Y243500D01*
X288039Y242573D01*
X288397Y241708D01*
X288966Y240966D01*
X289708Y240397D01*
X290573Y240039D01*
X291500Y239917D01*
X292427Y240039D01*
X293292Y240397D01*
X294034Y240966D01*
X294603Y241708D01*
X294961Y242573D01*
X295083Y243500D01*
X294961Y244427D01*
X294684Y245098D01*
X298793Y249207D01*
X298793Y249207D01*
X299036Y249571D01*
X299122Y250000D01*
X299121Y250000D01*
Y254000D01*
X299122Y254000D01*
X299036Y254429D01*
X298793Y254793D01*
X298793Y254793D01*
X294293Y259293D01*
X293929Y259536D01*
X293684Y259585D01*
X293593Y259805D01*
X293571Y260107D01*
X294319Y260681D01*
X294953Y261507D01*
X295351Y262468D01*
X295454Y263252D01*
X295982Y263432D01*
X300378Y259035D01*
Y243965D01*
X293467Y237053D01*
X287947D01*
Y229947D01*
X295053D01*
Y235467D01*
X302293Y242707D01*
X302293Y242707D01*
X302536Y243071D01*
X302622Y243500D01*
X302622Y243500D01*
Y259500D01*
X302622Y259500D01*
X302536Y259929D01*
X302293Y260293D01*
X302293Y260293D01*
X292895Y269691D01*
X292911Y270091D01*
X292982Y270268D01*
X293292Y270397D01*
X294034Y270966D01*
X294603Y271708D01*
X294961Y272573D01*
X295083Y273500D01*
X294961Y274427D01*
X294603Y275292D01*
X294034Y276034D01*
X293292Y276603D01*
X292427Y276961D01*
X291500Y277083D01*
X290573Y276961D01*
X289902Y276684D01*
X285622Y280965D01*
Y287207D01*
X286122Y287358D01*
X286254Y287160D01*
X288316Y285098D01*
X288039Y284427D01*
X287917Y283500D01*
X288039Y282573D01*
X288397Y281708D01*
X288966Y280966D01*
X289708Y280397D01*
X290573Y280039D01*
X291500Y279917D01*
X292427Y280039D01*
X293292Y280397D01*
X294034Y280966D01*
X294603Y281708D01*
X294961Y282573D01*
X295083Y283500D01*
X294961Y284427D01*
X294603Y285292D01*
X294034Y286034D01*
X293292Y286603D01*
X292427Y286961D01*
X291500Y287083D01*
X290573Y286961D01*
X289902Y286684D01*
X288169Y288417D01*
Y291184D01*
X288669Y291354D01*
X288966Y290966D01*
X289708Y290397D01*
X290573Y290039D01*
X291500Y289917D01*
X292427Y290039D01*
X293292Y290397D01*
X294034Y290966D01*
X294603Y291708D01*
X294961Y292573D01*
X295083Y293500D01*
X294968Y294378D01*
X294999Y294540D01*
X295224Y294879D01*
X340000D01*
X340000Y294878D01*
X340429Y294964D01*
X340793Y295207D01*
X360965Y315378D01*
X376946D01*
X390177Y302148D01*
D02*
G37*
G36*
X431878Y250535D02*
Y240500D01*
X431878Y240500D01*
X431964Y240071D01*
X432207Y239707D01*
X435707Y236207D01*
X435707Y236207D01*
X435847Y236114D01*
X435695Y235614D01*
X427968D01*
X427868Y235750D01*
X427762Y236067D01*
X427781Y236166D01*
X428028Y236535D01*
X428151Y237154D01*
X428028Y237772D01*
X427726Y238224D01*
X427966Y238384D01*
X428405Y239041D01*
X428459Y239315D01*
X424272D01*
X420084D01*
X420139Y239041D01*
X420577Y238384D01*
X420818Y238224D01*
X420515Y237772D01*
X420393Y237154D01*
X420515Y236535D01*
X420762Y236166D01*
X420829Y235823D01*
X420762Y235479D01*
X420515Y235110D01*
X420393Y234492D01*
X420515Y233874D01*
X420762Y233505D01*
X420829Y233161D01*
X420762Y232818D01*
X420515Y232449D01*
X420393Y231831D01*
X420515Y231213D01*
X420818Y230760D01*
X420577Y230600D01*
X420139Y229943D01*
X420084Y229669D01*
X424272D01*
Y228669D01*
X420084D01*
X420139Y228395D01*
X420316Y228129D01*
X420049Y227629D01*
X417957D01*
X414122Y231465D01*
Y237782D01*
X414122Y237782D01*
X414036Y238211D01*
X413793Y238575D01*
X413793Y238575D01*
X411760Y240608D01*
X411396Y240851D01*
X410967Y240936D01*
X410967Y240936D01*
X399424D01*
X399325Y241073D01*
X399219Y241389D01*
X399238Y241489D01*
X399484Y241858D01*
X399607Y242476D01*
X399484Y243094D01*
X399238Y243463D01*
X399171Y243807D01*
X399238Y244151D01*
X399484Y244520D01*
X399607Y245138D01*
X399484Y245756D01*
X399238Y246125D01*
X399180Y246421D01*
X399454Y246879D01*
X409060D01*
X409188Y246688D01*
X409790Y246285D01*
X410500Y246144D01*
X411210Y246285D01*
X411812Y246688D01*
X412215Y247290D01*
X412356Y248000D01*
X412215Y248710D01*
X411812Y249312D01*
X411210Y249715D01*
X410500Y249856D01*
X409790Y249715D01*
X409188Y249312D01*
X409060Y249121D01*
X398865D01*
X398610Y249291D01*
X397992Y249414D01*
X393465D01*
X392846Y249291D01*
X392322Y248941D01*
X391972Y248417D01*
X391849Y247799D01*
X391972Y247181D01*
X392055Y247058D01*
X391879Y246484D01*
X391773Y246451D01*
X391610Y246476D01*
X391122Y246965D01*
Y254630D01*
X392321Y255829D01*
X396856D01*
Y261235D01*
X396856Y261360D01*
Y261735D01*
X396856Y261860D01*
Y263379D01*
X419035D01*
X431878Y250535D01*
D02*
G37*
%LPC*%
G36*
X363256Y297047D02*
X360000D01*
Y294382D01*
X363256D01*
Y297047D01*
D02*
G37*
G36*
X359000D02*
X355744D01*
Y294382D01*
X359000D01*
Y297047D01*
D02*
G37*
G36*
X363256Y260094D02*
X360000D01*
Y257429D01*
X363256D01*
Y260094D01*
D02*
G37*
G36*
X359000D02*
X355744D01*
Y257429D01*
X359000D01*
Y260094D01*
D02*
G37*
G36*
X426535Y249414D02*
X422008D01*
X421390Y249291D01*
X420866Y248941D01*
X420515Y248417D01*
X420393Y247799D01*
X420515Y247181D01*
X420762Y246812D01*
X420829Y246468D01*
X420762Y246125D01*
X420515Y245756D01*
X420393Y245138D01*
X420515Y244520D01*
X420762Y244151D01*
X420829Y243807D01*
X420762Y243463D01*
X420515Y243094D01*
X420393Y242476D01*
X420515Y241858D01*
X420818Y241406D01*
X420577Y241246D01*
X420139Y240589D01*
X420084Y240315D01*
X424272D01*
X428459D01*
X428405Y240589D01*
X427966Y241246D01*
X427726Y241406D01*
X428028Y241858D01*
X428151Y242476D01*
X428028Y243094D01*
X427781Y243463D01*
X427714Y243807D01*
X427781Y244151D01*
X428028Y244520D01*
X428151Y245138D01*
X428028Y245756D01*
X427781Y246125D01*
X427714Y246468D01*
X427781Y246812D01*
X428028Y247181D01*
X428151Y247799D01*
X428028Y248417D01*
X427678Y248941D01*
X427154Y249291D01*
X426535Y249414D01*
D02*
G37*
G36*
X417500Y241665D02*
Y240000D01*
X419165D01*
X419092Y240366D01*
X418601Y241101D01*
X417866Y241592D01*
X417500Y241665D01*
D02*
G37*
G36*
X416500D02*
X416134Y241592D01*
X415399Y241101D01*
X414908Y240366D01*
X414836Y240000D01*
X416500D01*
Y241665D01*
D02*
G37*
G36*
X419165Y239000D02*
X417500D01*
Y237335D01*
X417866Y237408D01*
X418601Y237899D01*
X419092Y238634D01*
X419165Y239000D01*
D02*
G37*
G36*
X416500D02*
X414836D01*
X414908Y238634D01*
X415399Y237899D01*
X416134Y237408D01*
X416500Y237335D01*
Y239000D01*
D02*
G37*
%LPD*%
D10*
X519000Y362500D02*
D03*
Y368406D02*
D03*
X509167Y362500D02*
D03*
Y368406D02*
D03*
X470167Y190500D02*
D03*
Y184595D02*
D03*
X341000Y199547D02*
D03*
Y205453D02*
D03*
X393500Y264500D02*
D03*
Y258594D02*
D03*
X359500Y297547D02*
D03*
Y303453D02*
D03*
X480000Y190500D02*
D03*
Y184595D02*
D03*
X359500Y260595D02*
D03*
Y266500D02*
D03*
X356250Y199547D02*
D03*
Y205453D02*
D03*
D11*
X392563Y337382D02*
D03*
X394531D02*
D03*
X396500D02*
D03*
X398468D02*
D03*
X392563Y342500D02*
D03*
X394531D02*
D03*
X396500D02*
D03*
X398468D02*
D03*
D12*
X395728Y247799D02*
D03*
Y245138D02*
D03*
Y242476D02*
D03*
Y239815D02*
D03*
Y237154D02*
D03*
Y234492D02*
D03*
Y231831D02*
D03*
Y229169D02*
D03*
Y226508D02*
D03*
Y223847D02*
D03*
Y221185D02*
D03*
Y218524D02*
D03*
Y215862D02*
D03*
Y213201D02*
D03*
X424272Y247799D02*
D03*
Y245138D02*
D03*
Y242476D02*
D03*
Y239815D02*
D03*
Y237154D02*
D03*
Y234492D02*
D03*
Y231831D02*
D03*
Y229169D02*
D03*
Y226508D02*
D03*
Y223847D02*
D03*
Y221185D02*
D03*
Y218524D02*
D03*
Y215862D02*
D03*
Y213201D02*
D03*
D13*
X393909Y305524D02*
D03*
Y302374D02*
D03*
Y299224D02*
D03*
Y296075D02*
D03*
Y292925D02*
D03*
Y289776D02*
D03*
Y286626D02*
D03*
Y283476D02*
D03*
X427374D02*
D03*
Y286626D02*
D03*
Y289776D02*
D03*
Y292925D02*
D03*
Y296075D02*
D03*
Y299224D02*
D03*
Y302374D02*
D03*
Y305524D02*
D03*
D14*
X399618Y277768D02*
D03*
X402768D02*
D03*
X405917D02*
D03*
X409067D02*
D03*
X412217D02*
D03*
X415366D02*
D03*
X418516D02*
D03*
X421665D02*
D03*
Y311232D02*
D03*
X418516D02*
D03*
X415366D02*
D03*
X412217D02*
D03*
X409067D02*
D03*
X405917D02*
D03*
X402768D02*
D03*
X399618D02*
D03*
D15*
X377500Y184216D02*
D03*
Y166500D02*
D03*
D16*
X374500Y261784D02*
D03*
Y299185D02*
D03*
D17*
X515000Y245563D02*
D03*
Y253437D02*
D03*
X470500Y245563D02*
D03*
Y253437D02*
D03*
X485333Y245563D02*
D03*
Y253437D02*
D03*
X500167Y245563D02*
D03*
Y253437D02*
D03*
D18*
X475000Y210689D02*
D03*
Y222500D02*
D03*
X491000Y210689D02*
D03*
Y222500D02*
D03*
X507000Y210689D02*
D03*
Y222500D02*
D03*
D19*
X405335Y163933D02*
D03*
X407795Y163933D02*
D03*
X410256D02*
D03*
X412717Y163933D02*
D03*
X415177D02*
D03*
D20*
X453803Y181445D02*
D03*
Y190500D02*
D03*
Y199555D02*
D03*
D21*
X429197Y190500D02*
D03*
D22*
X410500Y363992D02*
D03*
Y337500D02*
D03*
D23*
X393909Y292925D02*
X398425D01*
X399500Y294000D01*
Y297500D01*
X397776Y299224D02*
X399500Y297500D01*
X393909Y299224D02*
X397776D01*
X387000Y294500D02*
X388575Y296075D01*
X387000Y292000D02*
Y294500D01*
Y292000D02*
X388657Y290342D01*
X393342D01*
X388575Y296075D02*
X393909D01*
X430315Y221185D02*
X438000Y213500D01*
X424272Y221185D02*
X430315D01*
X438000Y201000D02*
Y213500D01*
Y201000D02*
X448500Y190500D01*
X440500Y206000D02*
X446945Y199555D01*
X440500Y206000D02*
Y214000D01*
X427992Y226508D02*
X440500Y214000D01*
X448500Y190500D02*
X453803D01*
X415815Y221185D02*
X424272D01*
X405169Y231831D02*
X415815Y221185D01*
X430000Y218500D02*
X435000Y213500D01*
Y196000D02*
Y213500D01*
Y196000D02*
X444500Y186500D01*
X424295Y218500D02*
X430000D01*
X417000Y239500D02*
X417315Y239815D01*
X420815D01*
X417500Y231000D02*
Y236500D01*
Y231000D02*
X419331Y229169D01*
X417500Y236500D02*
X420815Y239815D01*
X408331Y231831D02*
X409000Y232500D01*
X405169Y231831D02*
X408331D01*
X395728D02*
X405169D01*
X395882Y237000D02*
X405000D01*
X413000Y231000D02*
Y237782D01*
X410967Y239815D02*
X413000Y237782D01*
X395728Y239815D02*
X410967D01*
X419331Y229169D02*
X424272D01*
X500167Y253437D02*
Y262333D01*
X499000Y263500D02*
X500167Y262333D01*
X462000Y263500D02*
X499000D01*
X454500Y256000D02*
X462000Y263500D01*
X485333Y253833D02*
X492500Y261000D01*
X494500D01*
X390500Y332000D02*
X392563Y334063D01*
Y337382D01*
X435000Y286500D02*
X436000Y287500D01*
X427500Y286500D02*
X435000D01*
X434000Y284500D02*
X440000D01*
X515179Y289821D02*
X520500Y284500D01*
X427419Y289821D02*
X515179D01*
X427374Y289776D02*
X427419Y289821D01*
X432976Y283476D02*
X434000Y284500D01*
X427374Y283476D02*
X432976D01*
X402768Y311232D02*
Y316000D01*
X386000D02*
X402768D01*
X379500Y322500D02*
X386000Y316000D01*
X419400Y315400D02*
X460900D01*
X418516Y314516D02*
X419400Y315400D01*
X418516Y311232D02*
Y314516D01*
X413000Y231000D02*
X417492Y226508D01*
X338847Y297847D02*
X359500Y318500D01*
X289821Y299447D02*
X337947D01*
X289550Y297847D02*
X338847D01*
X287047Y295344D02*
X289550Y297847D01*
X289321Y299947D02*
X289821Y299447D01*
X286947Y299947D02*
X289321D01*
X284500Y297500D02*
X286947Y299947D01*
X284500Y280500D02*
Y297500D01*
X279500D02*
X290000Y308000D01*
X279500Y279000D02*
Y297500D01*
Y279000D02*
X289500Y269000D01*
X276000Y305000D02*
X289000Y318000D01*
X276000Y270500D02*
Y305000D01*
Y270500D02*
X288000Y258500D01*
X529039Y239500D02*
X534000D01*
X526000Y236461D02*
X529039Y239500D01*
X526000Y214000D02*
Y236461D01*
X534000Y239500D02*
X540500Y246000D01*
X396983Y342983D02*
Y344483D01*
X396500Y342500D02*
X396983Y342983D01*
Y344483D02*
X398500Y346000D01*
X402000D01*
X515000Y253437D02*
X515000Y253437D01*
Y258500D01*
X513000Y260500D02*
X515000Y258500D01*
X511000Y260500D02*
X513000D01*
X501500Y266000D02*
X507500Y260000D01*
X454500Y266000D02*
X501500D01*
X507500Y240500D02*
Y260000D01*
X485333Y253437D02*
Y253833D01*
X525000Y254500D02*
X531500D01*
X522000Y251500D02*
X525000Y254500D01*
X522000Y240000D02*
Y251500D01*
X521000Y239000D02*
X522000Y240000D01*
X436500Y237000D02*
X465500D01*
X433000Y240500D02*
X436500Y237000D01*
X433000Y240500D02*
Y251000D01*
X419500Y264500D02*
X433000Y251000D01*
X393500Y264500D02*
X419500D01*
X509000Y239000D02*
X521000D01*
X507500Y240500D02*
X509000Y239000D01*
X531500Y364500D02*
X540500Y355500D01*
Y246000D02*
Y355500D01*
X490500Y178500D02*
X526000Y214000D01*
X465000Y178500D02*
X490500D01*
X531500Y213000D02*
Y234500D01*
X493000Y174500D02*
X531500Y213000D01*
X460748Y174500D02*
X493000D01*
X457000Y186500D02*
X465000Y178500D01*
X444500Y186500D02*
X457000D01*
X424272Y218524D02*
X424295Y218500D01*
X463406Y184595D02*
X470167D01*
X461000Y187000D02*
X463406Y184595D01*
X461000Y187000D02*
Y198000D01*
X460000Y199000D02*
X461000Y198000D01*
X454358Y199000D02*
X460000D01*
X453803Y199555D02*
X454358Y199000D01*
X427000Y287000D02*
X427374Y286626D01*
X427500Y286500D01*
X431008Y226508D02*
X433000Y228500D01*
X427992Y226508D02*
X431008D01*
X446945Y199555D02*
X453803D01*
Y181445D02*
X460748Y174500D01*
X417492Y226508D02*
X424272D01*
X291500Y243500D02*
X298000Y250000D01*
Y254000D01*
X293500Y258500D02*
X298000Y254000D01*
X288000Y258500D02*
X293500D01*
X289000Y318000D02*
X350000D01*
X356500Y324500D01*
X385500D01*
X403083Y326417D02*
X405917D01*
X396500Y333000D02*
X403083Y326417D01*
X405917Y311232D02*
Y326417D01*
X357500Y322500D02*
X379500D01*
X343000Y308000D02*
X357500Y322500D01*
X378500Y320500D02*
X387768Y311232D01*
X359000Y320500D02*
X378500D01*
X337947Y299447D02*
X359000Y320500D01*
X292000Y269000D02*
X301500Y259500D01*
Y243500D02*
Y259500D01*
X291500Y233500D02*
X301500Y243500D01*
X289500Y269000D02*
X292000D01*
X405917Y300967D02*
X405942Y300942D01*
X405917Y300967D02*
Y311232D01*
X402768D02*
Y324232D01*
X409067Y293567D02*
Y311232D01*
X401250Y285750D02*
X409067Y293567D01*
X394185Y289500D02*
X401000D01*
X393909Y289776D02*
X394185Y289500D01*
X407000Y286000D02*
Y286500D01*
X403500Y284500D02*
X405000D01*
X401194Y285750D02*
X401250D01*
X393500Y278056D02*
X401194Y285750D01*
X407000Y286000D02*
X412217Y280784D01*
X405000Y284500D02*
X409067Y280433D01*
X290000Y308000D02*
X343000D01*
X386000Y261360D02*
X389140Y264500D01*
X393500D01*
X386000Y247500D02*
Y261360D01*
X361500Y223000D02*
X386000Y247500D01*
X288000Y223000D02*
X361500D01*
X284500Y226500D02*
X288000Y223000D01*
X284500Y226500D02*
Y246500D01*
X291500Y253500D01*
X395728Y237154D02*
X395882Y237000D01*
X395728Y247799D02*
X395929Y248000D01*
X410500D01*
X396000Y349000D02*
X399000D01*
X395000Y351500D02*
X406000D01*
X394531Y347532D02*
X396000Y349000D01*
X392563Y349063D02*
X395000Y351500D01*
X406000D02*
X410500Y347000D01*
X394531Y342500D02*
Y347532D01*
X410500Y337500D02*
Y347000D01*
X392563Y342500D02*
Y349063D01*
X402500Y277500D02*
X403000Y277000D01*
X399500Y270500D02*
X399618Y270618D01*
Y277768D01*
X403000Y272500D02*
Y277000D01*
X402500Y277500D02*
X402768Y277768D01*
X405917Y270583D02*
Y277768D01*
Y270583D02*
X406000Y270500D01*
X409067Y277768D02*
Y280433D01*
X412217Y277768D02*
Y280784D01*
X411000Y285500D02*
Y287000D01*
Y285500D02*
X415366Y281134D01*
Y277768D02*
Y281134D01*
X414500Y287000D02*
X418516Y282984D01*
Y277768D02*
Y282984D01*
X419000Y287000D02*
X421665Y284335D01*
X418500Y287000D02*
X419000D01*
X419500Y289500D02*
X422000Y287000D01*
X408500Y289500D02*
X419500D01*
X421665Y277768D02*
Y284335D01*
X422000Y287000D02*
X427000D01*
X412217Y315341D02*
X419376Y322500D01*
X412217Y311232D02*
Y315341D01*
X419376Y322500D02*
X452500D01*
X415366Y315366D02*
X419000Y319000D01*
X456000D01*
X460900Y315400D02*
X461000Y315500D01*
X460116Y311232D02*
X464600Y315716D01*
X459024Y305524D02*
X488000Y334500D01*
X415366Y311232D02*
Y315366D01*
X421665Y311232D02*
X460116D01*
X464600Y316100D02*
X473500Y325000D01*
X464600Y315716D02*
Y316100D01*
X473500Y325000D02*
X474500D01*
X427374Y305524D02*
X459024D01*
X459874Y302374D02*
X502500Y345000D01*
X427374Y302374D02*
X459874D01*
X452000Y296500D02*
X452500D01*
X449276Y299224D02*
X452000Y296500D01*
X427374Y299224D02*
X449276D01*
X509167Y347167D02*
Y362500D01*
X454925Y292925D02*
X509167Y347167D01*
X427374Y292925D02*
X454925D01*
X520500Y284500D02*
X531500D01*
X393500Y264500D02*
Y278056D01*
X434500Y261000D02*
X446000D01*
X421665Y273835D02*
X434500Y261000D01*
X446000D02*
X449000Y258000D01*
X418516Y273984D02*
X436500Y256000D01*
X418516Y273984D02*
Y277768D01*
X436500Y256000D02*
X444500D01*
X449000Y251500D02*
Y258000D01*
Y251500D02*
X454500Y246000D01*
X457563Y240500D02*
X470500Y253437D01*
X448500Y240500D02*
X457563D01*
X444500Y244500D02*
X448500Y240500D01*
X444500Y244500D02*
Y246000D01*
X470167Y184595D02*
X480000D01*
X509167Y362500D02*
X517167Y354500D01*
X531500D01*
X519000Y368406D02*
X523595D01*
X527500Y364500D01*
X531500D01*
X421665Y273835D02*
Y277768D01*
X470500Y253437D02*
X485333D01*
X515000D02*
X520437D01*
X531500Y264500D01*
X470500Y227000D02*
X475000Y222500D01*
X470500Y227000D02*
Y245563D01*
X485333Y228167D02*
X491000Y222500D01*
X485333Y228167D02*
Y245563D01*
X500167Y229333D02*
X507000Y222500D01*
X500167Y229333D02*
Y245563D01*
X485689Y216000D02*
X491000Y210689D01*
X458500Y216000D02*
X485689D01*
X440008Y234492D02*
X458500Y216000D01*
X424272Y234492D02*
X440008D01*
X457811Y210689D02*
X475000D01*
X436669Y231831D02*
X457811Y210689D01*
X424272Y231831D02*
X436669D01*
X424272Y226508D02*
X427992D01*
X341000Y199547D02*
X356250D01*
X341000Y205453D02*
X356250D01*
X386815Y239815D02*
X395728D01*
X377500Y230500D02*
X386815Y239815D01*
X377500Y184216D02*
Y230500D01*
X391362Y245138D02*
X395728D01*
X390000Y246500D02*
X391362Y245138D01*
X390000Y246500D02*
Y255095D01*
X393500Y258594D01*
X356250Y187750D02*
X377500Y166500D01*
X356250Y187750D02*
Y199547D01*
X418201Y213201D02*
X424272D01*
X410256Y205256D02*
X418201Y213201D01*
X410256Y163933D02*
Y205256D01*
X418362Y215862D02*
X424272D01*
X407795Y205295D02*
X418362Y215862D01*
X407795Y163933D02*
Y205295D01*
X377500Y166500D02*
X384000D01*
X387500Y170000D01*
X404000D01*
X405335Y168665D01*
Y163933D02*
Y168665D01*
X409067Y311232D02*
Y319567D01*
X410500Y321000D01*
Y337500D01*
X396500Y333000D02*
Y337382D01*
X394531Y332531D02*
Y337382D01*
X394500Y332500D02*
X394531Y332531D01*
X394500Y332500D02*
X402768Y324232D01*
X340000Y296000D02*
X360500Y316500D01*
X294000Y296000D02*
X340000D01*
X291500Y293500D02*
X294000Y296000D01*
X377411Y316500D02*
X390970Y302941D01*
X360500Y316500D02*
X377411D01*
X387768Y311232D02*
X399618D01*
X390976Y305524D02*
X393909D01*
X378000Y318500D02*
X390976Y305524D01*
X359500Y318500D02*
X378000D01*
X284500Y280500D02*
X291500Y273500D01*
X287047Y287953D02*
X291500Y283500D01*
X287047Y287953D02*
Y295344D01*
X390970Y302941D02*
X393342D01*
X393909Y302374D01*
X393342Y290342D02*
X393909Y289776D01*
X369783Y266500D02*
X374500Y261784D01*
X359500Y266500D02*
X369783D01*
X370232Y303453D02*
X374500Y299185D01*
X359500Y303453D02*
X370232D01*
X374500Y261784D02*
Y270953D01*
X387024Y283476D01*
X393909D01*
X387059Y286626D02*
X393909D01*
X374500Y299185D02*
X387059Y286626D01*
D24*
X454500Y246000D02*
D03*
X531500Y234500D02*
D03*
X291500Y233500D02*
D03*
D25*
X444500Y246000D02*
D03*
X454500Y256000D02*
D03*
X444500D02*
D03*
X454500Y266000D02*
D03*
X444500D02*
D03*
X531500Y374500D02*
D03*
Y364500D02*
D03*
Y354500D02*
D03*
Y344500D02*
D03*
Y334500D02*
D03*
Y324500D02*
D03*
Y314500D02*
D03*
Y304500D02*
D03*
Y294500D02*
D03*
Y284500D02*
D03*
Y274500D02*
D03*
Y264500D02*
D03*
Y254500D02*
D03*
Y244500D02*
D03*
X291500Y373500D02*
D03*
Y363500D02*
D03*
Y353500D02*
D03*
Y343500D02*
D03*
Y333500D02*
D03*
Y323500D02*
D03*
Y313500D02*
D03*
Y303500D02*
D03*
Y293500D02*
D03*
Y283500D02*
D03*
Y273500D02*
D03*
Y263500D02*
D03*
Y253500D02*
D03*
Y243500D02*
D03*
D26*
X401496Y164819D02*
D03*
X419016Y164720D02*
D03*
D27*
X393818Y153500D02*
D03*
X426694D02*
D03*
D28*
X417000Y239500D02*
D03*
X409000Y232500D02*
D03*
X405000Y237000D02*
D03*
X494500Y261000D02*
D03*
X440000Y284500D02*
D03*
X436000Y287500D02*
D03*
X511000Y260500D02*
D03*
X465500Y237000D02*
D03*
X433000Y228500D02*
D03*
X385500Y324500D02*
D03*
X405917Y326417D02*
D03*
X405942Y300942D02*
D03*
X401000Y289500D02*
D03*
X407000Y286500D02*
D03*
X403500Y284500D02*
D03*
X410500Y248000D02*
D03*
X402000Y346000D02*
D03*
X399000Y349000D02*
D03*
X399500Y270500D02*
D03*
X403000Y272500D02*
D03*
X406000Y270500D02*
D03*
X411000Y287000D02*
D03*
X414500D02*
D03*
X418500D02*
D03*
X408500Y289500D02*
D03*
X452500Y322500D02*
D03*
X456000Y319000D02*
D03*
X461000Y315500D02*
D03*
X474500Y325000D02*
D03*
X488000Y334500D02*
D03*
X502500Y345000D02*
D03*
X452500Y296500D02*
D03*
D29*
X390500Y332000D02*
D03*
M02*
