M48
;Layer_Color=9474304
;FILE_FORMAT=2:5
INCH,TZ
;TYPE=PLATED
T1F00S00C0.01260
T4F00S00C0.03543
%
T01
X494500Y261000
X511000Y260500
X465500Y237000
X433000Y228500
X417000Y239500
X405000Y237000
X409000Y232500
X410500Y248000
X406000Y270500
X403000Y272500
X399500Y270500
X403500Y284500
X407000Y286500
X411000Y287000
X414500
X418500
X408500Y289500
X401000
X405942Y300942
X436000Y287500
X440000Y284500
X452500Y296500
Y322500
X456000Y319000
X461000Y315500
X405917Y326417
X390500Y332000
X385500Y324500
X402000Y346000
X399000Y349000
X474500Y325000
X488000Y334500
X502500Y345000
T04
X531500Y234500
Y244500
Y254500
Y264500
Y274500
Y284500
Y294500
Y304500
X454500Y266000
Y256000
Y246000
X444500
Y256000
Y266000
X291500Y263500
Y273500
Y283500
Y293500
Y303500
Y253500
Y243500
Y233500
Y313500
Y323500
Y333500
Y343500
Y353500
Y363500
Y373500
X531500Y374500
Y364500
Y354500
Y344500
Y334500
Y324500
Y314500
M30
