G04 Layer_Color=32768*
%FSLAX25Y25*%
%MOIN*%
G70*
G01*
G75*
%ADD30C,0.00394*%
%ADD54C,0.00197*%
D30*
X515850Y359941D02*
X522150D01*
X515850Y370965D02*
X522150D01*
X515850Y359941D02*
Y370965D01*
X522150Y359941D02*
Y370965D01*
X519000Y363484D02*
Y367421D01*
X517031Y365453D02*
X520968D01*
X506017Y359941D02*
X512316D01*
X506017Y370965D02*
X512316D01*
X506017Y359941D02*
Y370965D01*
X512316Y359941D02*
Y370965D01*
X509167Y363484D02*
Y367421D01*
X507198Y365453D02*
X511135D01*
X467017Y193059D02*
X473316D01*
X467017Y182035D02*
X473316D01*
Y193059D01*
X467017Y182035D02*
Y193059D01*
X470167Y185579D02*
Y189516D01*
X468198Y187547D02*
X472135D01*
X395516Y337972D02*
Y341910D01*
X393547Y339941D02*
X397484D01*
X408032Y230500D02*
X411969D01*
X410000Y228532D02*
Y232469D01*
X408673Y294500D02*
X412610D01*
X410642Y292531D02*
Y296468D01*
X337850Y196988D02*
X344150D01*
X337850Y208012D02*
X344150D01*
X337850Y196988D02*
Y208012D01*
X344150Y196988D02*
Y208012D01*
X341000Y200532D02*
Y204468D01*
X339032Y202500D02*
X342969D01*
X390350Y267059D02*
X396650D01*
X390350Y256035D02*
X396650D01*
Y267059D01*
X390350Y256035D02*
Y267059D01*
X393500Y259579D02*
Y263516D01*
X391531Y261547D02*
X395468D01*
X510079Y240839D02*
X519921D01*
X510079Y258161D02*
X519921D01*
X510079Y240839D02*
Y258161D01*
X519921Y240839D02*
Y258161D01*
X515000Y247532D02*
Y251468D01*
X513031Y249500D02*
X516968D01*
X356350Y294988D02*
X362650D01*
X356350Y306012D02*
X362650D01*
X356350Y294988D02*
Y306012D01*
X362650Y294988D02*
Y306012D01*
X359500Y298532D02*
Y302468D01*
X357531Y300500D02*
X361469D01*
X476850Y193059D02*
X483150D01*
X476850Y182035D02*
X483150D01*
Y193059D01*
X476850Y182035D02*
Y193059D01*
X480000Y185579D02*
Y189516D01*
X478031Y187547D02*
X481968D01*
X465579Y240839D02*
X475421D01*
X465579Y258161D02*
X475421D01*
X465579Y240839D02*
Y258161D01*
X475421Y240839D02*
Y258161D01*
X470500Y247532D02*
Y251468D01*
X468532Y249500D02*
X472469D01*
X480412Y240839D02*
X490255D01*
X480412Y258161D02*
X490255D01*
X480412Y240839D02*
Y258161D01*
X490255Y240839D02*
Y258161D01*
X485333Y247532D02*
Y251468D01*
X483365Y249500D02*
X487302D01*
X495245Y240839D02*
X505088D01*
X495245Y258161D02*
X505088D01*
X495245Y240839D02*
Y258161D01*
X505088Y240839D02*
Y258161D01*
X500167Y247532D02*
Y251468D01*
X498198Y249500D02*
X502135D01*
X439532Y190500D02*
X443469D01*
X441500Y188531D02*
Y192469D01*
X356350Y258035D02*
X362650D01*
X356350Y269059D02*
X362650D01*
X356350Y258035D02*
Y269059D01*
X362650Y258035D02*
Y269059D01*
X359500Y261579D02*
Y265516D01*
X357531Y263547D02*
X361469D01*
X353100Y196988D02*
X359400D01*
X353100Y208012D02*
X359400D01*
X353100Y196988D02*
Y208012D01*
X359400Y196988D02*
Y208012D01*
X356250Y200532D02*
Y204468D01*
X354281Y202500D02*
X358219D01*
D54*
X390398Y334941D02*
X400634D01*
X390398Y344941D02*
X400634D01*
X390398Y334941D02*
Y344941D01*
X400634Y334941D02*
Y344941D01*
X391496Y208846D02*
Y252153D01*
X428504Y208846D02*
Y252153D01*
X391496D02*
X428504D01*
X391496Y208846D02*
X428504D01*
X390071Y273929D02*
Y315071D01*
X431213Y273929D02*
Y315071D01*
X390071D02*
X431213D01*
X390071Y273929D02*
X431213D01*
X458232Y176327D02*
Y204673D01*
X424768Y176327D02*
Y204673D01*
Y176327D02*
X458232D01*
X424768Y204673D02*
X458232D01*
M02*
